<?xml version="1.0" encoding="utf-8" standalone="no"?>
<!DOCTYPE svg PUBLIC "-//W3C//DTD SVG 1.1//EN"
  "http://www.w3.org/Graphics/SVG/1.1/DTD/svg11.dtd">
<svg xmlns:xlink="http://www.w3.org/1999/xlink" width="720pt" height="648pt" viewBox="0 0 720 648" xmlns="http://www.w3.org/2000/svg" version="1.1">
 <metadata>
  <rdf:RDF xmlns:dc="http://purl.org/dc/elements/1.1/" xmlns:cc="http://creativecommons.org/ns#" xmlns:rdf="http://www.w3.org/1999/02/22-rdf-syntax-ns#">
   <cc:Work>
    <dc:type rdf:resource="http://purl.org/dc/dcmitype/StillImage"/>
    <dc:date>2025-02-22T17:48:02.008461</dc:date>
    <dc:format>image/svg+xml</dc:format>
    <dc:creator>
     <cc:Agent>
      <dc:title>Matplotlib v3.8.3, https://matplotlib.org/</dc:title>
     </cc:Agent>
    </dc:creator>
   </cc:Work>
  </rdf:RDF>
 </metadata>
 <defs>
  <style type="text/css">*{stroke-linejoin: round; stroke-linecap: butt}</style>
 </defs>
 <g id="figure_1">
  <g id="patch_1">
   <path d="M 0 648 
L 720 648 
L 720 0 
L 0 0 
z
" style="fill: #ffffff"/>
  </g>
  <g id="axes_1">
   <g id="patch_2">
    <path d="M 39.995553 165.309697 
L 716.99976 165.309697 
L 716.99976 22.16997 
L 39.995553 22.16997 
z
" style="fill: #eaeaf2"/>
   </g>
   <g id="matplotlib.axis_1">
    <g id="xtick_1">
     <g id="line2d_1">
      <path d="M 39.995553 165.309697 
L 39.995553 22.16997 
" clip-path="url(#pa343a48899)" style="fill: none; stroke: #ffffff; stroke-linecap: round"/>
     </g>
     <g id="text_1">
      <!-- 0 -->
      <g style="fill: #262626" transform="translate(36.937037 182.683291) scale(0.11 -0.11)">
       <defs>
        <path id="ArialMT-30" d="M 266 2259 
Q 266 3072 433 3567 
Q 600 4063 929 4331 
Q 1259 4600 1759 4600 
Q 2128 4600 2406 4451 
Q 2684 4303 2865 4023 
Q 3047 3744 3150 3342 
Q 3253 2941 3253 2259 
Q 3253 1453 3087 958 
Q 2922 463 2592 192 
Q 2263 -78 1759 -78 
Q 1097 -78 719 397 
Q 266 969 266 2259 
z
M 844 2259 
Q 844 1131 1108 757 
Q 1372 384 1759 384 
Q 2147 384 2411 759 
Q 2675 1134 2675 2259 
Q 2675 3391 2411 3762 
Q 2147 4134 1753 4134 
Q 1366 4134 1134 3806 
Q 844 3388 844 2259 
z
" transform="scale(0.015625)"/>
       </defs>
       <use xlink:href="#ArialMT-30"/>
      </g>
     </g>
    </g>
    <g id="xtick_2">
     <g id="line2d_2">
      <path d="M 163.087227 165.309697 
L 163.087227 22.16997 
" clip-path="url(#pa343a48899)" style="fill: none; stroke: #ffffff; stroke-linecap: round"/>
     </g>
     <g id="text_2">
      <!-- 10 -->
      <g style="fill: #262626" transform="translate(156.970195 182.683291) scale(0.11 -0.11)">
       <defs>
        <path id="ArialMT-31" d="M 2384 0 
L 1822 0 
L 1822 3584 
Q 1619 3391 1289 3197 
Q 959 3003 697 2906 
L 697 3450 
Q 1169 3672 1522 3987 
Q 1875 4303 2022 4600 
L 2384 4600 
L 2384 0 
z
" transform="scale(0.015625)"/>
       </defs>
       <use xlink:href="#ArialMT-31"/>
       <use xlink:href="#ArialMT-30" x="55.615234"/>
      </g>
     </g>
    </g>
    <g id="xtick_3">
     <g id="line2d_3">
      <path d="M 286.178901 165.309697 
L 286.178901 22.16997 
" clip-path="url(#pa343a48899)" style="fill: none; stroke: #ffffff; stroke-linecap: round"/>
     </g>
     <g id="text_3">
      <!-- 20 -->
      <g style="fill: #262626" transform="translate(280.061869 182.683291) scale(0.11 -0.11)">
       <defs>
        <path id="ArialMT-32" d="M 3222 541 
L 3222 0 
L 194 0 
Q 188 203 259 391 
Q 375 700 629 1000 
Q 884 1300 1366 1694 
Q 2113 2306 2375 2664 
Q 2638 3022 2638 3341 
Q 2638 3675 2398 3904 
Q 2159 4134 1775 4134 
Q 1369 4134 1125 3890 
Q 881 3647 878 3216 
L 300 3275 
Q 359 3922 746 4261 
Q 1134 4600 1788 4600 
Q 2447 4600 2831 4234 
Q 3216 3869 3216 3328 
Q 3216 3053 3103 2787 
Q 2991 2522 2730 2228 
Q 2469 1934 1863 1422 
Q 1356 997 1212 845 
Q 1069 694 975 541 
L 3222 541 
z
" transform="scale(0.015625)"/>
       </defs>
       <use xlink:href="#ArialMT-32"/>
       <use xlink:href="#ArialMT-30" x="55.615234"/>
      </g>
     </g>
    </g>
    <g id="xtick_4">
     <g id="line2d_4">
      <path d="M 409.270575 165.309697 
L 409.270575 22.16997 
" clip-path="url(#pa343a48899)" style="fill: none; stroke: #ffffff; stroke-linecap: round"/>
     </g>
     <g id="text_4">
      <!-- 30 -->
      <g style="fill: #262626" transform="translate(403.153544 182.683291) scale(0.11 -0.11)">
       <defs>
        <path id="ArialMT-33" d="M 269 1209 
L 831 1284 
Q 928 806 1161 595 
Q 1394 384 1728 384 
Q 2125 384 2398 659 
Q 2672 934 2672 1341 
Q 2672 1728 2419 1979 
Q 2166 2231 1775 2231 
Q 1616 2231 1378 2169 
L 1441 2663 
Q 1497 2656 1531 2656 
Q 1891 2656 2178 2843 
Q 2466 3031 2466 3422 
Q 2466 3731 2256 3934 
Q 2047 4138 1716 4138 
Q 1388 4138 1169 3931 
Q 950 3725 888 3313 
L 325 3413 
Q 428 3978 793 4289 
Q 1159 4600 1703 4600 
Q 2078 4600 2393 4439 
Q 2709 4278 2876 4000 
Q 3044 3722 3044 3409 
Q 3044 3113 2884 2869 
Q 2725 2625 2413 2481 
Q 2819 2388 3044 2092 
Q 3269 1797 3269 1353 
Q 3269 753 2831 336 
Q 2394 -81 1725 -81 
Q 1122 -81 723 278 
Q 325 638 269 1209 
z
" transform="scale(0.015625)"/>
       </defs>
       <use xlink:href="#ArialMT-33"/>
       <use xlink:href="#ArialMT-30" x="55.615234"/>
      </g>
     </g>
    </g>
    <g id="xtick_5">
     <g id="line2d_5">
      <path d="M 532.362249 165.309697 
L 532.362249 22.16997 
" clip-path="url(#pa343a48899)" style="fill: none; stroke: #ffffff; stroke-linecap: round"/>
     </g>
     <g id="text_5">
      <!-- 40 -->
      <g style="fill: #262626" transform="translate(526.245218 182.683291) scale(0.11 -0.11)">
       <defs>
        <path id="ArialMT-34" d="M 2069 0 
L 2069 1097 
L 81 1097 
L 81 1613 
L 2172 4581 
L 2631 4581 
L 2631 1613 
L 3250 1613 
L 3250 1097 
L 2631 1097 
L 2631 0 
L 2069 0 
z
M 2069 1613 
L 2069 3678 
L 634 1613 
L 2069 1613 
z
" transform="scale(0.015625)"/>
       </defs>
       <use xlink:href="#ArialMT-34"/>
       <use xlink:href="#ArialMT-30" x="55.615234"/>
      </g>
     </g>
    </g>
    <g id="xtick_6">
     <g id="line2d_6">
      <path d="M 655.453923 165.309697 
L 655.453923 22.16997 
" clip-path="url(#pa343a48899)" style="fill: none; stroke: #ffffff; stroke-linecap: round"/>
     </g>
     <g id="text_6">
      <!-- 50 -->
      <g style="fill: #262626" transform="translate(649.336892 182.683291) scale(0.11 -0.11)">
       <defs>
        <path id="ArialMT-35" d="M 266 1200 
L 856 1250 
Q 922 819 1161 601 
Q 1400 384 1738 384 
Q 2144 384 2425 690 
Q 2706 997 2706 1503 
Q 2706 1984 2436 2262 
Q 2166 2541 1728 2541 
Q 1456 2541 1237 2417 
Q 1019 2294 894 2097 
L 366 2166 
L 809 4519 
L 3088 4519 
L 3088 3981 
L 1259 3981 
L 1013 2750 
Q 1425 3038 1878 3038 
Q 2478 3038 2890 2622 
Q 3303 2206 3303 1553 
Q 3303 931 2941 478 
Q 2500 -78 1738 -78 
Q 1113 -78 717 272 
Q 322 622 266 1200 
z
" transform="scale(0.015625)"/>
       </defs>
       <use xlink:href="#ArialMT-35"/>
       <use xlink:href="#ArialMT-30" x="55.615234"/>
      </g>
     </g>
    </g>
    <g id="text_7">
     <!-- User 1's Allocation $x_{1}$ -->
     <g style="fill: #262626" transform="translate(320.897656 197.458916) scale(0.12 -0.12)">
      <defs>
       <path id="ArialMT-55" d="M 3500 4581 
L 4106 4581 
L 4106 1934 
Q 4106 1244 3950 837 
Q 3794 431 3386 176 
Q 2978 -78 2316 -78 
Q 1672 -78 1262 144 
Q 853 366 678 786 
Q 503 1206 503 1934 
L 503 4581 
L 1109 4581 
L 1109 1938 
Q 1109 1341 1220 1058 
Q 1331 775 1601 622 
Q 1872 469 2263 469 
Q 2931 469 3215 772 
Q 3500 1075 3500 1938 
L 3500 4581 
z
" transform="scale(0.015625)"/>
       <path id="ArialMT-73" d="M 197 991 
L 753 1078 
Q 800 744 1014 566 
Q 1228 388 1613 388 
Q 2000 388 2187 545 
Q 2375 703 2375 916 
Q 2375 1106 2209 1216 
Q 2094 1291 1634 1406 
Q 1016 1563 777 1677 
Q 538 1791 414 1992 
Q 291 2194 291 2438 
Q 291 2659 392 2848 
Q 494 3038 669 3163 
Q 800 3259 1026 3326 
Q 1253 3394 1513 3394 
Q 1903 3394 2198 3281 
Q 2494 3169 2634 2976 
Q 2775 2784 2828 2463 
L 2278 2388 
Q 2241 2644 2061 2787 
Q 1881 2931 1553 2931 
Q 1166 2931 1000 2803 
Q 834 2675 834 2503 
Q 834 2394 903 2306 
Q 972 2216 1119 2156 
Q 1203 2125 1616 2013 
Q 2213 1853 2448 1751 
Q 2684 1650 2818 1456 
Q 2953 1263 2953 975 
Q 2953 694 2789 445 
Q 2625 197 2315 61 
Q 2006 -75 1616 -75 
Q 969 -75 630 194 
Q 291 463 197 991 
z
" transform="scale(0.015625)"/>
       <path id="ArialMT-65" d="M 2694 1069 
L 3275 997 
Q 3138 488 2766 206 
Q 2394 -75 1816 -75 
Q 1088 -75 661 373 
Q 234 822 234 1631 
Q 234 2469 665 2931 
Q 1097 3394 1784 3394 
Q 2450 3394 2872 2941 
Q 3294 2488 3294 1666 
Q 3294 1616 3291 1516 
L 816 1516 
Q 847 969 1125 678 
Q 1403 388 1819 388 
Q 2128 388 2347 550 
Q 2566 713 2694 1069 
z
M 847 1978 
L 2700 1978 
Q 2663 2397 2488 2606 
Q 2219 2931 1791 2931 
Q 1403 2931 1139 2672 
Q 875 2413 847 1978 
z
" transform="scale(0.015625)"/>
       <path id="ArialMT-72" d="M 416 0 
L 416 3319 
L 922 3319 
L 922 2816 
Q 1116 3169 1280 3281 
Q 1444 3394 1641 3394 
Q 1925 3394 2219 3213 
L 2025 2691 
Q 1819 2813 1613 2813 
Q 1428 2813 1281 2702 
Q 1134 2591 1072 2394 
Q 978 2094 978 1738 
L 978 0 
L 416 0 
z
" transform="scale(0.015625)"/>
       <path id="ArialMT-20" transform="scale(0.015625)"/>
       <path id="ArialMT-27" d="M 425 2959 
L 281 3816 
L 281 4581 
L 922 4581 
L 922 3816 
L 772 2959 
L 425 2959 
z
" transform="scale(0.015625)"/>
       <path id="ArialMT-41" d="M -9 0 
L 1750 4581 
L 2403 4581 
L 4278 0 
L 3588 0 
L 3053 1388 
L 1138 1388 
L 634 0 
L -9 0 
z
M 1313 1881 
L 2866 1881 
L 2388 3150 
Q 2169 3728 2063 4100 
Q 1975 3659 1816 3225 
L 1313 1881 
z
" transform="scale(0.015625)"/>
       <path id="ArialMT-6c" d="M 409 0 
L 409 4581 
L 972 4581 
L 972 0 
L 409 0 
z
" transform="scale(0.015625)"/>
       <path id="ArialMT-6f" d="M 213 1659 
Q 213 2581 725 3025 
Q 1153 3394 1769 3394 
Q 2453 3394 2887 2945 
Q 3322 2497 3322 1706 
Q 3322 1066 3130 698 
Q 2938 331 2570 128 
Q 2203 -75 1769 -75 
Q 1072 -75 642 372 
Q 213 819 213 1659 
z
M 791 1659 
Q 791 1022 1069 705 
Q 1347 388 1769 388 
Q 2188 388 2466 706 
Q 2744 1025 2744 1678 
Q 2744 2294 2464 2611 
Q 2184 2928 1769 2928 
Q 1347 2928 1069 2612 
Q 791 2297 791 1659 
z
" transform="scale(0.015625)"/>
       <path id="ArialMT-63" d="M 2588 1216 
L 3141 1144 
Q 3050 572 2676 248 
Q 2303 -75 1759 -75 
Q 1078 -75 664 370 
Q 250 816 250 1647 
Q 250 2184 428 2587 
Q 606 2991 970 3192 
Q 1334 3394 1763 3394 
Q 2303 3394 2647 3120 
Q 2991 2847 3088 2344 
L 2541 2259 
Q 2463 2594 2264 2762 
Q 2066 2931 1784 2931 
Q 1359 2931 1093 2626 
Q 828 2322 828 1663 
Q 828 994 1084 691 
Q 1341 388 1753 388 
Q 2084 388 2306 591 
Q 2528 794 2588 1216 
z
" transform="scale(0.015625)"/>
       <path id="ArialMT-61" d="M 2588 409 
Q 2275 144 1986 34 
Q 1697 -75 1366 -75 
Q 819 -75 525 192 
Q 231 459 231 875 
Q 231 1119 342 1320 
Q 453 1522 633 1644 
Q 813 1766 1038 1828 
Q 1203 1872 1538 1913 
Q 2219 1994 2541 2106 
Q 2544 2222 2544 2253 
Q 2544 2597 2384 2738 
Q 2169 2928 1744 2928 
Q 1347 2928 1158 2789 
Q 969 2650 878 2297 
L 328 2372 
Q 403 2725 575 2942 
Q 747 3159 1072 3276 
Q 1397 3394 1825 3394 
Q 2250 3394 2515 3294 
Q 2781 3194 2906 3042 
Q 3031 2891 3081 2659 
Q 3109 2516 3109 2141 
L 3109 1391 
Q 3109 606 3145 398 
Q 3181 191 3288 0 
L 2700 0 
Q 2613 175 2588 409 
z
M 2541 1666 
Q 2234 1541 1622 1453 
Q 1275 1403 1131 1340 
Q 988 1278 909 1158 
Q 831 1038 831 891 
Q 831 666 1001 516 
Q 1172 366 1500 366 
Q 1825 366 2078 508 
Q 2331 650 2450 897 
Q 2541 1088 2541 1459 
L 2541 1666 
z
" transform="scale(0.015625)"/>
       <path id="ArialMT-74" d="M 1650 503 
L 1731 6 
Q 1494 -44 1306 -44 
Q 1000 -44 831 53 
Q 663 150 594 308 
Q 525 466 525 972 
L 525 2881 
L 113 2881 
L 113 3319 
L 525 3319 
L 525 4141 
L 1084 4478 
L 1084 3319 
L 1650 3319 
L 1650 2881 
L 1084 2881 
L 1084 941 
Q 1084 700 1114 631 
Q 1144 563 1211 522 
Q 1278 481 1403 481 
Q 1497 481 1650 503 
z
" transform="scale(0.015625)"/>
       <path id="ArialMT-69" d="M 425 3934 
L 425 4581 
L 988 4581 
L 988 3934 
L 425 3934 
z
M 425 0 
L 425 3319 
L 988 3319 
L 988 0 
L 425 0 
z
" transform="scale(0.015625)"/>
       <path id="ArialMT-6e" d="M 422 0 
L 422 3319 
L 928 3319 
L 928 2847 
Q 1294 3394 1984 3394 
Q 2284 3394 2536 3286 
Q 2788 3178 2913 3003 
Q 3038 2828 3088 2588 
Q 3119 2431 3119 2041 
L 3119 0 
L 2556 0 
L 2556 2019 
Q 2556 2363 2490 2533 
Q 2425 2703 2258 2804 
Q 2091 2906 1866 2906 
Q 1506 2906 1245 2678 
Q 984 2450 984 1813 
L 984 0 
L 422 0 
z
" transform="scale(0.015625)"/>
       <path id="DejaVuSans-Oblique-78" d="M 3841 3500 
L 2234 1784 
L 3219 0 
L 2559 0 
L 1819 1388 
L 531 0 
L -166 0 
L 1556 1844 
L 641 3500 
L 1300 3500 
L 1972 2234 
L 3144 3500 
L 3841 3500 
z
" transform="scale(0.015625)"/>
       <path id="DejaVuSans-31" d="M 794 531 
L 1825 531 
L 1825 4091 
L 703 3866 
L 703 4441 
L 1819 4666 
L 2450 4666 
L 2450 531 
L 3481 531 
L 3481 0 
L 794 0 
L 794 531 
z
" transform="scale(0.015625)"/>
      </defs>
      <use xlink:href="#ArialMT-55" transform="translate(0 0.125)"/>
      <use xlink:href="#ArialMT-73" transform="translate(72.216797 0.125)"/>
      <use xlink:href="#ArialMT-65" transform="translate(122.216797 0.125)"/>
      <use xlink:href="#ArialMT-72" transform="translate(177.832031 0.125)"/>
      <use xlink:href="#ArialMT-20" transform="translate(211.132812 0.125)"/>
      <use xlink:href="#ArialMT-31" transform="translate(238.916016 0.125)"/>
      <use xlink:href="#ArialMT-27" transform="translate(294.53125 0.125)"/>
      <use xlink:href="#ArialMT-73" transform="translate(313.623047 0.125)"/>
      <use xlink:href="#ArialMT-20" transform="translate(363.623047 0.125)"/>
      <use xlink:href="#ArialMT-41" transform="translate(391.40625 0.125)"/>
      <use xlink:href="#ArialMT-6c" transform="translate(458.105469 0.125)"/>
      <use xlink:href="#ArialMT-6c" transform="translate(480.322266 0.125)"/>
      <use xlink:href="#ArialMT-6f" transform="translate(502.539062 0.125)"/>
      <use xlink:href="#ArialMT-63" transform="translate(558.154297 0.125)"/>
      <use xlink:href="#ArialMT-61" transform="translate(608.154297 0.125)"/>
      <use xlink:href="#ArialMT-74" transform="translate(663.769531 0.125)"/>
      <use xlink:href="#ArialMT-69" transform="translate(691.552734 0.125)"/>
      <use xlink:href="#ArialMT-6f" transform="translate(713.769531 0.125)"/>
      <use xlink:href="#ArialMT-6e" transform="translate(769.384766 0.125)"/>
      <use xlink:href="#ArialMT-20" transform="translate(825 0.125)"/>
      <use xlink:href="#DejaVuSans-Oblique-78" transform="translate(852.783203 0.125)"/>
      <use xlink:href="#DejaVuSans-31" transform="translate(911.962891 -16.28125) scale(0.7)"/>
     </g>
    </g>
   </g>
   <g id="matplotlib.axis_2">
    <g id="ytick_1">
     <g id="line2d_7">
      <path d="M 39.995553 165.309697 
L 716.99976 165.309697 
" clip-path="url(#pa343a48899)" style="fill: none; stroke: #ffffff; stroke-linecap: round"/>
     </g>
     <g id="text_8">
      <!-- 0 -->
      <g style="fill: #262626" transform="translate(24.378521 169.246494) scale(0.11 -0.11)">
       <use xlink:href="#ArialMT-30"/>
      </g>
     </g>
    </g>
    <g id="ytick_2">
     <g id="line2d_8">
      <path d="M 39.995553 139.284292 
L 716.99976 139.284292 
" clip-path="url(#pa343a48899)" style="fill: none; stroke: #ffffff; stroke-linecap: round"/>
     </g>
     <g id="text_9">
      <!-- 10 -->
      <g style="fill: #262626" transform="translate(18.26149 143.221089) scale(0.11 -0.11)">
       <use xlink:href="#ArialMT-31"/>
       <use xlink:href="#ArialMT-30" x="55.615234"/>
      </g>
     </g>
    </g>
    <g id="ytick_3">
     <g id="line2d_9">
      <path d="M 39.995553 113.258887 
L 716.99976 113.258887 
" clip-path="url(#pa343a48899)" style="fill: none; stroke: #ffffff; stroke-linecap: round"/>
     </g>
     <g id="text_10">
      <!-- 20 -->
      <g style="fill: #262626" transform="translate(18.26149 117.195684) scale(0.11 -0.11)">
       <use xlink:href="#ArialMT-32"/>
       <use xlink:href="#ArialMT-30" x="55.615234"/>
      </g>
     </g>
    </g>
    <g id="ytick_4">
     <g id="line2d_10">
      <path d="M 39.995553 87.233482 
L 716.99976 87.233482 
" clip-path="url(#pa343a48899)" style="fill: none; stroke: #ffffff; stroke-linecap: round"/>
     </g>
     <g id="text_11">
      <!-- 30 -->
      <g style="fill: #262626" transform="translate(18.26149 91.170279) scale(0.11 -0.11)">
       <use xlink:href="#ArialMT-33"/>
       <use xlink:href="#ArialMT-30" x="55.615234"/>
      </g>
     </g>
    </g>
    <g id="ytick_5">
     <g id="line2d_11">
      <path d="M 39.995553 61.208077 
L 716.99976 61.208077 
" clip-path="url(#pa343a48899)" style="fill: none; stroke: #ffffff; stroke-linecap: round"/>
     </g>
     <g id="text_12">
      <!-- 40 -->
      <g style="fill: #262626" transform="translate(18.26149 65.144874) scale(0.11 -0.11)">
       <use xlink:href="#ArialMT-34"/>
       <use xlink:href="#ArialMT-30" x="55.615234"/>
      </g>
     </g>
    </g>
    <g id="ytick_6">
     <g id="line2d_12">
      <path d="M 39.995553 35.182672 
L 716.99976 35.182672 
" clip-path="url(#pa343a48899)" style="fill: none; stroke: #ffffff; stroke-linecap: round"/>
     </g>
     <g id="text_13">
      <!-- 50 -->
      <g style="fill: #262626" transform="translate(18.26149 39.119469) scale(0.11 -0.11)">
       <use xlink:href="#ArialMT-35"/>
       <use xlink:href="#ArialMT-30" x="55.615234"/>
      </g>
     </g>
    </g>
    <g id="text_14">
     <!-- User 2's Allocation $x_{2}$ -->
     <g style="fill: #262626" transform="translate(11.87649 151.339834) rotate(-90) scale(0.12 -0.12)">
      <defs>
       <path id="DejaVuSans-32" d="M 1228 531 
L 3431 531 
L 3431 0 
L 469 0 
L 469 531 
Q 828 903 1448 1529 
Q 2069 2156 2228 2338 
Q 2531 2678 2651 2914 
Q 2772 3150 2772 3378 
Q 2772 3750 2511 3984 
Q 2250 4219 1831 4219 
Q 1534 4219 1204 4116 
Q 875 4013 500 3803 
L 500 4441 
Q 881 4594 1212 4672 
Q 1544 4750 1819 4750 
Q 2544 4750 2975 4387 
Q 3406 4025 3406 3419 
Q 3406 3131 3298 2873 
Q 3191 2616 2906 2266 
Q 2828 2175 2409 1742 
Q 1991 1309 1228 531 
z
" transform="scale(0.015625)"/>
      </defs>
      <use xlink:href="#ArialMT-55" transform="translate(0 0.125)"/>
      <use xlink:href="#ArialMT-73" transform="translate(72.216797 0.125)"/>
      <use xlink:href="#ArialMT-65" transform="translate(122.216797 0.125)"/>
      <use xlink:href="#ArialMT-72" transform="translate(177.832031 0.125)"/>
      <use xlink:href="#ArialMT-20" transform="translate(211.132812 0.125)"/>
      <use xlink:href="#ArialMT-32" transform="translate(238.916016 0.125)"/>
      <use xlink:href="#ArialMT-27" transform="translate(294.53125 0.125)"/>
      <use xlink:href="#ArialMT-73" transform="translate(313.623047 0.125)"/>
      <use xlink:href="#ArialMT-20" transform="translate(363.623047 0.125)"/>
      <use xlink:href="#ArialMT-41" transform="translate(391.40625 0.125)"/>
      <use xlink:href="#ArialMT-6c" transform="translate(458.105469 0.125)"/>
      <use xlink:href="#ArialMT-6c" transform="translate(480.322266 0.125)"/>
      <use xlink:href="#ArialMT-6f" transform="translate(502.539062 0.125)"/>
      <use xlink:href="#ArialMT-63" transform="translate(558.154297 0.125)"/>
      <use xlink:href="#ArialMT-61" transform="translate(608.154297 0.125)"/>
      <use xlink:href="#ArialMT-74" transform="translate(663.769531 0.125)"/>
      <use xlink:href="#ArialMT-69" transform="translate(691.552734 0.125)"/>
      <use xlink:href="#ArialMT-6f" transform="translate(713.769531 0.125)"/>
      <use xlink:href="#ArialMT-6e" transform="translate(769.384766 0.125)"/>
      <use xlink:href="#ArialMT-20" transform="translate(825 0.125)"/>
      <use xlink:href="#DejaVuSans-Oblique-78" transform="translate(852.783203 0.125)"/>
      <use xlink:href="#DejaVuSans-32" transform="translate(911.962891 -16.28125) scale(0.7)"/>
     </g>
    </g>
   </g>
   <g id="line2d_13">
    <path d="M 39.995553 165.309697 
L 53.811965 162.388478 
L 67.628377 159.467259 
L 81.44479 156.54604 
L 95.261202 153.624821 
L 109.077614 150.703603 
L 122.894027 147.782384 
L 136.710439 144.861165 
L 150.526852 141.939946 
L 164.343264 139.018727 
L 178.159676 136.097508 
L 191.976089 133.176289 
L 205.792501 130.25507 
L 219.608914 127.333851 
L 233.425326 124.412632 
L 247.241738 121.491413 
L 261.058151 118.570194 
L 274.874563 115.648975 
L 288.690976 112.727757 
L 302.507388 109.806538 
L 316.3238 106.885319 
L 330.140213 103.9641 
L 343.956625 101.042881 
L 357.773038 98.121662 
L 371.58945 95.200443 
L 385.405862 92.279224 
L 399.222275 89.358005 
L 413.038687 86.436786 
L 426.8551 83.515567 
L 440.671512 80.594348 
L 454.487924 77.673129 
L 468.304337 74.751911 
L 482.120749 71.830692 
L 495.937162 68.909473 
L 509.753574 65.988254 
L 523.569986 63.067035 
L 537.386399 60.145816 
L 551.202811 57.224597 
L 565.019224 54.303378 
L 578.835636 51.382159 
L 592.652048 48.46094 
L 606.468461 45.539721 
L 620.284873 42.618502 
L 634.101286 39.697284 
L 647.917698 36.776065 
L 661.73411 33.854846 
L 675.550523 30.933627 
L 689.366935 28.012408 
L 703.183348 25.091189 
L 716.99976 22.16997 
" clip-path="url(#pa343a48899)" style="fill: none; stroke-dasharray: 3.7,1.6; stroke-dashoffset: 0; stroke: #4c72b0"/>
   </g>
   <g id="line2d_14">
    <path d="M 39.995553 35.182672 
L 52.555927 37.838326 
L 65.116302 40.49398 
L 77.676677 43.149633 
L 90.237052 45.805287 
L 102.797427 48.46094 
L 115.357802 51.116594 
L 127.918177 53.772247 
L 140.478552 56.427901 
L 153.038927 59.083555 
L 165.599302 61.739208 
L 178.159676 64.394862 
L 190.720051 67.050515 
L 203.280426 69.706169 
L 215.840801 72.361822 
L 228.401176 75.017476 
L 240.961551 77.673129 
L 253.521926 80.328783 
L 266.082301 82.984437 
L 278.642676 85.64009 
L 291.203051 88.295744 
L 303.763426 90.951397 
L 316.3238 93.607051 
L 328.884175 96.262704 
L 341.44455 98.918358 
L 354.004925 101.574012 
L 366.5653 104.229665 
L 379.125675 106.885319 
L 391.68605 109.540972 
L 404.246425 112.196626 
L 416.8068 114.852279 
L 429.367175 117.507933 
L 441.92755 120.163587 
L 454.487924 122.81924 
L 467.048299 125.474894 
L 479.608674 128.130547 
L 492.169049 130.786201 
L 504.729424 133.441854 
L 517.289799 136.097508 
L 529.850174 138.753161 
L 542.410549 141.408815 
L 554.970924 144.064469 
L 567.531299 146.720122 
L 580.091674 149.375776 
L 592.652048 152.031429 
L 605.212423 154.687083 
L 617.772798 157.342736 
L 630.333173 159.99839 
L 642.893548 162.654044 
L 655.453923 165.309697 
" clip-path="url(#pa343a48899)" style="fill: none; stroke-dasharray: 3.7,1.6; stroke-dashoffset: 0; stroke: #dd8452"/>
   </g>
   <g id="line2d_15">
    <path d="M 347.724738 100.246185 
" clip-path="url(#pa343a48899)" style="fill: none; stroke: #55a868; stroke-width: 1.5; stroke-linecap: round"/>
    <defs>
     <path id="me1996f9a4c" d="M 0 3 
C 0.795609 3 1.55874 2.683901 2.12132 2.12132 
C 2.683901 1.55874 3 0.795609 3 0 
C 3 -0.795609 2.683901 -1.55874 2.12132 -2.12132 
C 1.55874 -2.683901 0.795609 -3 0 -3 
C -0.795609 -3 -1.55874 -2.683901 -2.12132 -2.12132 
C -2.683901 -1.55874 -3 -0.795609 -3 0 
C -3 0.795609 -2.683901 1.55874 -2.12132 2.12132 
C -1.55874 2.683901 -0.795609 3 0 3 
z
" style="stroke: #55a868"/>
    </defs>
    <g clip-path="url(#pa343a48899)">
     <use xlink:href="#me1996f9a4c" x="347.724738" y="100.246185" style="fill: #55a868; stroke: #55a868"/>
    </g>
   </g>
   <g id="line2d_16">
    <path d="M 64.613887 134.079211 
L 94.648256 115.71985 
L 141.609419 97.018975 
L 195.25745 86.475618 
L 239.049744 85.498665 
L 269.481318 88.169864 
L 290.894745 91.067785 
L 306.389312 93.437542 
L 317.696128 95.246247 
L 325.942754 96.593574 
L 331.942195 97.586081 
L 336.297063 98.312739 
L 339.453448 98.842763 
L 341.739177 99.228417 
L 343.393633 99.508564 
L 344.590885 99.711838 
L 345.457194 99.859216 
L 346.084015 99.96601 
L 346.537552 100.043364 
L 346.865713 100.099378 
L 347.103158 100.139931 
L 347.274968 100.169287 
L 347.399286 100.190535 
L 347.489241 100.205913 
L 347.554332 100.217042 
L 347.601432 100.225096 
L 347.635513 100.230924 
L 347.660175 100.235142 
L 347.678019 100.238194 
" clip-path="url(#pa343a48899)" style="fill: none; stroke: #000000; stroke-linecap: round"/>
    <defs>
     <path id="m8e5d462902" d="M 0 1.5 
C 0.397805 1.5 0.77937 1.341951 1.06066 1.06066 
C 1.341951 0.77937 1.5 0.397805 1.5 0 
C 1.5 -0.397805 1.341951 -0.77937 1.06066 -1.06066 
C 0.77937 -1.341951 0.397805 -1.5 0 -1.5 
C -0.397805 -1.5 -0.77937 -1.341951 -1.06066 -1.06066 
C -1.341951 -0.77937 -1.5 -0.397805 -1.5 0 
C -1.5 0.397805 -1.341951 0.77937 -1.06066 1.06066 
C -0.77937 1.341951 -0.397805 1.5 0 1.5 
z
" style="stroke: #000000"/>
    </defs>
    <g clip-path="url(#pa343a48899)">
     <use xlink:href="#m8e5d462902" x="64.613887" y="134.079211" style="stroke: #000000"/>
     <use xlink:href="#m8e5d462902" x="94.648256" y="115.71985" style="stroke: #000000"/>
     <use xlink:href="#m8e5d462902" x="141.609419" y="97.018975" style="stroke: #000000"/>
     <use xlink:href="#m8e5d462902" x="195.25745" y="86.475618" style="stroke: #000000"/>
     <use xlink:href="#m8e5d462902" x="239.049744" y="85.498665" style="stroke: #000000"/>
     <use xlink:href="#m8e5d462902" x="269.481318" y="88.169864" style="stroke: #000000"/>
     <use xlink:href="#m8e5d462902" x="290.894745" y="91.067785" style="stroke: #000000"/>
     <use xlink:href="#m8e5d462902" x="306.389312" y="93.437542" style="stroke: #000000"/>
     <use xlink:href="#m8e5d462902" x="317.696128" y="95.246247" style="stroke: #000000"/>
     <use xlink:href="#m8e5d462902" x="325.942754" y="96.593574" style="stroke: #000000"/>
     <use xlink:href="#m8e5d462902" x="331.942195" y="97.586081" style="stroke: #000000"/>
     <use xlink:href="#m8e5d462902" x="336.297063" y="98.312739" style="stroke: #000000"/>
     <use xlink:href="#m8e5d462902" x="339.453448" y="98.842763" style="stroke: #000000"/>
     <use xlink:href="#m8e5d462902" x="341.739177" y="99.228417" style="stroke: #000000"/>
     <use xlink:href="#m8e5d462902" x="343.393633" y="99.508564" style="stroke: #000000"/>
     <use xlink:href="#m8e5d462902" x="344.590885" y="99.711838" style="stroke: #000000"/>
     <use xlink:href="#m8e5d462902" x="345.457194" y="99.859216" style="stroke: #000000"/>
     <use xlink:href="#m8e5d462902" x="346.084015" y="99.96601" style="stroke: #000000"/>
     <use xlink:href="#m8e5d462902" x="346.537552" y="100.043364" style="stroke: #000000"/>
     <use xlink:href="#m8e5d462902" x="346.865713" y="100.099378" style="stroke: #000000"/>
     <use xlink:href="#m8e5d462902" x="347.103158" y="100.139931" style="stroke: #000000"/>
     <use xlink:href="#m8e5d462902" x="347.274968" y="100.169287" style="stroke: #000000"/>
     <use xlink:href="#m8e5d462902" x="347.399286" y="100.190535" style="stroke: #000000"/>
     <use xlink:href="#m8e5d462902" x="347.489241" y="100.205913" style="stroke: #000000"/>
     <use xlink:href="#m8e5d462902" x="347.554332" y="100.217042" style="stroke: #000000"/>
     <use xlink:href="#m8e5d462902" x="347.601432" y="100.225096" style="stroke: #000000"/>
     <use xlink:href="#m8e5d462902" x="347.635513" y="100.230924" style="stroke: #000000"/>
     <use xlink:href="#m8e5d462902" x="347.660175" y="100.235142" style="stroke: #000000"/>
     <use xlink:href="#m8e5d462902" x="347.678019" y="100.238194" style="stroke: #000000"/>
    </g>
   </g>
   <g id="line2d_17">
    <path d="M 347.678019 100.238194 
" clip-path="url(#pa343a48899)" style="fill: none; stroke: #c44e52; stroke-width: 1.5; stroke-linecap: round"/>
    <defs>
     <path id="m4e7c74a198" d="M 0 1.5 
C 0.397805 1.5 0.77937 1.341951 1.06066 1.06066 
C 1.341951 0.77937 1.5 0.397805 1.5 0 
C 1.5 -0.397805 1.341951 -0.77937 1.06066 -1.06066 
C 0.77937 -1.341951 0.397805 -1.5 0 -1.5 
C -0.397805 -1.5 -0.77937 -1.341951 -1.06066 -1.06066 
C -1.341951 -0.77937 -1.5 -0.397805 -1.5 0 
C -1.5 0.397805 -1.341951 0.77937 -1.06066 1.06066 
C -0.77937 1.341951 -0.397805 1.5 0 1.5 
z
" style="stroke: #c44e52"/>
    </defs>
    <g clip-path="url(#pa343a48899)">
     <use xlink:href="#m4e7c74a198" x="347.678019" y="100.238194" style="fill: #c44e52; stroke: #c44e52"/>
    </g>
   </g>
   <g id="patch_3">
    <path d="M 39.995553 165.309697 
L 39.995553 22.16997 
" style="fill: none; stroke: #ffffff; stroke-width: 1.25; stroke-linejoin: miter; stroke-linecap: square"/>
   </g>
   <g id="patch_4">
    <path d="M 716.99976 165.309697 
L 716.99976 22.16997 
" style="fill: none; stroke: #ffffff; stroke-width: 1.25; stroke-linejoin: miter; stroke-linecap: square"/>
   </g>
   <g id="patch_5">
    <path d="M 39.995553 165.309697 
L 716.99976 165.309697 
" style="fill: none; stroke: #ffffff; stroke-width: 1.25; stroke-linejoin: miter; stroke-linecap: square"/>
   </g>
   <g id="patch_6">
    <path d="M 39.995553 22.16997 
L 716.99976 22.16997 
" style="fill: none; stroke: #ffffff; stroke-width: 1.25; stroke-linejoin: miter; stroke-linecap: square"/>
   </g>
   <g id="legend_1">
    <g id="patch_7">
     <path d="M 47.695553 78.182314 
L 449.358834 78.182314 
Q 451.558834 78.182314 451.558834 75.982314 
L 451.558834 29.86997 
Q 451.558834 27.66997 449.358834 27.66997 
L 47.695553 27.66997 
Q 45.495553 27.66997 45.495553 29.86997 
L 45.495553 75.982314 
Q 45.495553 78.182314 47.695553 78.182314 
z
" style="fill: #eaeaf2; opacity: 0.8; stroke: #cccccc; stroke-linejoin: miter"/>
    </g>
    <g id="line2d_18">
     <path d="M 49.895553 36.093564 
L 60.895553 36.093564 
L 71.895553 36.093564 
" style="fill: none; stroke-dasharray: 3.7,1.6; stroke-dashoffset: 0; stroke: #4c72b0"/>
    </g>
    <g id="text_15">
     <!-- Fairness Line -->
     <g style="fill: #262626" transform="translate(80.695553 39.943564) scale(0.11 -0.11)">
      <defs>
       <path id="ArialMT-46" d="M 525 0 
L 525 4581 
L 3616 4581 
L 3616 4041 
L 1131 4041 
L 1131 2622 
L 3281 2622 
L 3281 2081 
L 1131 2081 
L 1131 0 
L 525 0 
z
" transform="scale(0.015625)"/>
       <path id="ArialMT-4c" d="M 469 0 
L 469 4581 
L 1075 4581 
L 1075 541 
L 3331 541 
L 3331 0 
L 469 0 
z
" transform="scale(0.015625)"/>
      </defs>
      <use xlink:href="#ArialMT-46"/>
      <use xlink:href="#ArialMT-61" x="61.083984"/>
      <use xlink:href="#ArialMT-69" x="116.699219"/>
      <use xlink:href="#ArialMT-72" x="138.916016"/>
      <use xlink:href="#ArialMT-6e" x="172.216797"/>
      <use xlink:href="#ArialMT-65" x="227.832031"/>
      <use xlink:href="#ArialMT-73" x="283.447266"/>
      <use xlink:href="#ArialMT-73" x="333.447266"/>
      <use xlink:href="#ArialMT-20" x="383.447266"/>
      <use xlink:href="#ArialMT-4c" x="411.230469"/>
      <use xlink:href="#ArialMT-69" x="466.845703"/>
      <use xlink:href="#ArialMT-6e" x="489.0625"/>
      <use xlink:href="#ArialMT-65" x="544.677734"/>
     </g>
    </g>
    <g id="line2d_19">
     <path d="M 49.895553 51.78747 
L 60.895553 51.78747 
L 71.895553 51.78747 
" style="fill: none; stroke-dasharray: 3.7,1.6; stroke-dashoffset: 0; stroke: #dd8452"/>
    </g>
    <g id="text_16">
     <!-- Efficiency Line -->
     <g style="fill: #262626" transform="translate(80.695553 55.63747) scale(0.11 -0.11)">
      <defs>
       <path id="ArialMT-45" d="M 506 0 
L 506 4581 
L 3819 4581 
L 3819 4041 
L 1113 4041 
L 1113 2638 
L 3647 2638 
L 3647 2100 
L 1113 2100 
L 1113 541 
L 3925 541 
L 3925 0 
L 506 0 
z
" transform="scale(0.015625)"/>
       <path id="ArialMT-66" d="M 556 0 
L 556 2881 
L 59 2881 
L 59 3319 
L 556 3319 
L 556 3672 
Q 556 4006 616 4169 
Q 697 4388 901 4523 
Q 1106 4659 1475 4659 
Q 1713 4659 2000 4603 
L 1916 4113 
Q 1741 4144 1584 4144 
Q 1328 4144 1222 4034 
Q 1116 3925 1116 3625 
L 1116 3319 
L 1763 3319 
L 1763 2881 
L 1116 2881 
L 1116 0 
L 556 0 
z
" transform="scale(0.015625)"/>
       <path id="ArialMT-79" d="M 397 -1278 
L 334 -750 
Q 519 -800 656 -800 
Q 844 -800 956 -737 
Q 1069 -675 1141 -563 
Q 1194 -478 1313 -144 
Q 1328 -97 1363 -6 
L 103 3319 
L 709 3319 
L 1400 1397 
Q 1534 1031 1641 628 
Q 1738 1016 1872 1384 
L 2581 3319 
L 3144 3319 
L 1881 -56 
Q 1678 -603 1566 -809 
Q 1416 -1088 1222 -1217 
Q 1028 -1347 759 -1347 
Q 597 -1347 397 -1278 
z
" transform="scale(0.015625)"/>
      </defs>
      <use xlink:href="#ArialMT-45"/>
      <use xlink:href="#ArialMT-66" x="66.699219"/>
      <use xlink:href="#ArialMT-66" x="92.732422"/>
      <use xlink:href="#ArialMT-69" x="120.515625"/>
      <use xlink:href="#ArialMT-63" x="142.732422"/>
      <use xlink:href="#ArialMT-69" x="192.732422"/>
      <use xlink:href="#ArialMT-65" x="214.949219"/>
      <use xlink:href="#ArialMT-6e" x="270.564453"/>
      <use xlink:href="#ArialMT-63" x="326.179688"/>
      <use xlink:href="#ArialMT-79" x="376.179688"/>
      <use xlink:href="#ArialMT-20" x="426.179688"/>
      <use xlink:href="#ArialMT-4c" x="453.962891"/>
      <use xlink:href="#ArialMT-69" x="509.578125"/>
      <use xlink:href="#ArialMT-6e" x="531.794922"/>
      <use xlink:href="#ArialMT-65" x="587.410156"/>
     </g>
    </g>
    <g id="line2d_20">
     <path d="M 49.895553 67.617158 
L 60.895553 67.617158 
L 71.895553 67.617158 
" style="fill: none; stroke: #55a868; stroke-width: 1.5; stroke-linecap: round"/>
     <g>
      <use xlink:href="#me1996f9a4c" x="60.895553" y="67.617158" style="fill: #55a868; stroke: #55a868"/>
     </g>
    </g>
    <g id="text_17">
     <!-- Optimal Point (25.00, 25.00) -->
     <g style="fill: #262626" transform="translate(80.695553 71.467158) scale(0.11 -0.11)">
      <defs>
       <path id="ArialMT-4f" d="M 309 2231 
Q 309 3372 921 4017 
Q 1534 4663 2503 4663 
Q 3138 4663 3647 4359 
Q 4156 4056 4423 3514 
Q 4691 2972 4691 2284 
Q 4691 1588 4409 1038 
Q 4128 488 3612 205 
Q 3097 -78 2500 -78 
Q 1853 -78 1343 234 
Q 834 547 571 1087 
Q 309 1628 309 2231 
z
M 934 2222 
Q 934 1394 1379 917 
Q 1825 441 2497 441 
Q 3181 441 3623 922 
Q 4066 1403 4066 2288 
Q 4066 2847 3877 3264 
Q 3688 3681 3323 3911 
Q 2959 4141 2506 4141 
Q 1863 4141 1398 3698 
Q 934 3256 934 2222 
z
" transform="scale(0.015625)"/>
       <path id="ArialMT-70" d="M 422 -1272 
L 422 3319 
L 934 3319 
L 934 2888 
Q 1116 3141 1344 3267 
Q 1572 3394 1897 3394 
Q 2322 3394 2647 3175 
Q 2972 2956 3137 2557 
Q 3303 2159 3303 1684 
Q 3303 1175 3120 767 
Q 2938 359 2589 142 
Q 2241 -75 1856 -75 
Q 1575 -75 1351 44 
Q 1128 163 984 344 
L 984 -1272 
L 422 -1272 
z
M 931 1641 
Q 931 1000 1190 694 
Q 1450 388 1819 388 
Q 2194 388 2461 705 
Q 2728 1022 2728 1688 
Q 2728 2322 2467 2637 
Q 2206 2953 1844 2953 
Q 1484 2953 1207 2617 
Q 931 2281 931 1641 
z
" transform="scale(0.015625)"/>
       <path id="ArialMT-6d" d="M 422 0 
L 422 3319 
L 925 3319 
L 925 2853 
Q 1081 3097 1340 3245 
Q 1600 3394 1931 3394 
Q 2300 3394 2536 3241 
Q 2772 3088 2869 2813 
Q 3263 3394 3894 3394 
Q 4388 3394 4653 3120 
Q 4919 2847 4919 2278 
L 4919 0 
L 4359 0 
L 4359 2091 
Q 4359 2428 4304 2576 
Q 4250 2725 4106 2815 
Q 3963 2906 3769 2906 
Q 3419 2906 3187 2673 
Q 2956 2441 2956 1928 
L 2956 0 
L 2394 0 
L 2394 2156 
Q 2394 2531 2256 2718 
Q 2119 2906 1806 2906 
Q 1569 2906 1367 2781 
Q 1166 2656 1075 2415 
Q 984 2175 984 1722 
L 984 0 
L 422 0 
z
" transform="scale(0.015625)"/>
       <path id="ArialMT-50" d="M 494 0 
L 494 4581 
L 2222 4581 
Q 2678 4581 2919 4538 
Q 3256 4481 3484 4323 
Q 3713 4166 3852 3881 
Q 3991 3597 3991 3256 
Q 3991 2672 3619 2267 
Q 3247 1863 2275 1863 
L 1100 1863 
L 1100 0 
L 494 0 
z
M 1100 2403 
L 2284 2403 
Q 2872 2403 3119 2622 
Q 3366 2841 3366 3238 
Q 3366 3525 3220 3729 
Q 3075 3934 2838 4000 
Q 2684 4041 2272 4041 
L 1100 4041 
L 1100 2403 
z
" transform="scale(0.015625)"/>
       <path id="ArialMT-28" d="M 1497 -1347 
Q 1031 -759 709 28 
Q 388 816 388 1659 
Q 388 2403 628 3084 
Q 909 3875 1497 4659 
L 1900 4659 
Q 1522 4009 1400 3731 
Q 1209 3300 1100 2831 
Q 966 2247 966 1656 
Q 966 153 1900 -1347 
L 1497 -1347 
z
" transform="scale(0.015625)"/>
       <path id="ArialMT-2e" d="M 581 0 
L 581 641 
L 1222 641 
L 1222 0 
L 581 0 
z
" transform="scale(0.015625)"/>
       <path id="ArialMT-2c" d="M 569 0 
L 569 641 
L 1209 641 
L 1209 0 
Q 1209 -353 1084 -570 
Q 959 -788 688 -906 
L 531 -666 
Q 709 -588 793 -436 
Q 878 -284 888 0 
L 569 0 
z
" transform="scale(0.015625)"/>
       <path id="ArialMT-29" d="M 791 -1347 
L 388 -1347 
Q 1322 153 1322 1656 
Q 1322 2244 1188 2822 
Q 1081 3291 891 3722 
Q 769 4003 388 4659 
L 791 4659 
Q 1378 3875 1659 3084 
Q 1900 2403 1900 1659 
Q 1900 816 1576 28 
Q 1253 -759 791 -1347 
z
" transform="scale(0.015625)"/>
      </defs>
      <use xlink:href="#ArialMT-4f"/>
      <use xlink:href="#ArialMT-70" x="77.783203"/>
      <use xlink:href="#ArialMT-74" x="133.398438"/>
      <use xlink:href="#ArialMT-69" x="161.181641"/>
      <use xlink:href="#ArialMT-6d" x="183.398438"/>
      <use xlink:href="#ArialMT-61" x="266.699219"/>
      <use xlink:href="#ArialMT-6c" x="322.314453"/>
      <use xlink:href="#ArialMT-20" x="344.53125"/>
      <use xlink:href="#ArialMT-50" x="372.314453"/>
      <use xlink:href="#ArialMT-6f" x="439.013672"/>
      <use xlink:href="#ArialMT-69" x="494.628906"/>
      <use xlink:href="#ArialMT-6e" x="516.845703"/>
      <use xlink:href="#ArialMT-74" x="572.460938"/>
      <use xlink:href="#ArialMT-20" x="600.244141"/>
      <use xlink:href="#ArialMT-28" x="628.027344"/>
      <use xlink:href="#ArialMT-32" x="661.328125"/>
      <use xlink:href="#ArialMT-35" x="716.943359"/>
      <use xlink:href="#ArialMT-2e" x="772.558594"/>
      <use xlink:href="#ArialMT-30" x="800.341797"/>
      <use xlink:href="#ArialMT-30" x="855.957031"/>
      <use xlink:href="#ArialMT-2c" x="911.572266"/>
      <use xlink:href="#ArialMT-20" x="939.355469"/>
      <use xlink:href="#ArialMT-32" x="967.138672"/>
      <use xlink:href="#ArialMT-35" x="1022.753906"/>
      <use xlink:href="#ArialMT-2e" x="1078.369141"/>
      <use xlink:href="#ArialMT-30" x="1106.152344"/>
      <use xlink:href="#ArialMT-30" x="1161.767578"/>
      <use xlink:href="#ArialMT-29" x="1217.382812"/>
     </g>
    </g>
    <g id="line2d_21">
     <path d="M 240.260865 36.093564 
L 251.260865 36.093564 
L 262.260865 36.093564 
" style="fill: none; stroke: #000000; stroke-linecap: round"/>
     <g>
      <use xlink:href="#m8e5d462902" x="251.260865" y="36.093564" style="stroke: #000000"/>
     </g>
    </g>
    <g id="text_18">
     <!-- WISD Fair Path -->
     <g style="fill: #262626" transform="translate(271.060865 39.943564) scale(0.11 -0.11)">
      <defs>
       <path id="ArialMT-57" d="M 1294 0 
L 78 4581 
L 700 4581 
L 1397 1578 
Q 1509 1106 1591 641 
Q 1766 1375 1797 1488 
L 2669 4581 
L 3400 4581 
L 4056 2263 
Q 4303 1400 4413 641 
Q 4500 1075 4641 1638 
L 5359 4581 
L 5969 4581 
L 4713 0 
L 4128 0 
L 3163 3491 
Q 3041 3928 3019 4028 
Q 2947 3713 2884 3491 
L 1913 0 
L 1294 0 
z
" transform="scale(0.015625)"/>
       <path id="ArialMT-49" d="M 597 0 
L 597 4581 
L 1203 4581 
L 1203 0 
L 597 0 
z
" transform="scale(0.015625)"/>
       <path id="ArialMT-53" d="M 288 1472 
L 859 1522 
Q 900 1178 1048 958 
Q 1197 738 1509 602 
Q 1822 466 2213 466 
Q 2559 466 2825 569 
Q 3091 672 3220 851 
Q 3350 1031 3350 1244 
Q 3350 1459 3225 1620 
Q 3100 1781 2813 1891 
Q 2628 1963 1997 2114 
Q 1366 2266 1113 2400 
Q 784 2572 623 2826 
Q 463 3081 463 3397 
Q 463 3744 659 4045 
Q 856 4347 1234 4503 
Q 1613 4659 2075 4659 
Q 2584 4659 2973 4495 
Q 3363 4331 3572 4012 
Q 3781 3694 3797 3291 
L 3216 3247 
Q 3169 3681 2898 3903 
Q 2628 4125 2100 4125 
Q 1550 4125 1298 3923 
Q 1047 3722 1047 3438 
Q 1047 3191 1225 3031 
Q 1400 2872 2139 2705 
Q 2878 2538 3153 2413 
Q 3553 2228 3743 1945 
Q 3934 1663 3934 1294 
Q 3934 928 3725 604 
Q 3516 281 3123 101 
Q 2731 -78 2241 -78 
Q 1619 -78 1198 103 
Q 778 284 539 648 
Q 300 1013 288 1472 
z
" transform="scale(0.015625)"/>
       <path id="ArialMT-44" d="M 494 0 
L 494 4581 
L 2072 4581 
Q 2606 4581 2888 4516 
Q 3281 4425 3559 4188 
Q 3922 3881 4101 3404 
Q 4281 2928 4281 2316 
Q 4281 1794 4159 1391 
Q 4038 988 3847 723 
Q 3656 459 3429 307 
Q 3203 156 2883 78 
Q 2563 0 2147 0 
L 494 0 
z
M 1100 541 
L 2078 541 
Q 2531 541 2789 625 
Q 3047 709 3200 863 
Q 3416 1078 3536 1442 
Q 3656 1806 3656 2325 
Q 3656 3044 3420 3430 
Q 3184 3816 2847 3947 
Q 2603 4041 2063 4041 
L 1100 4041 
L 1100 541 
z
" transform="scale(0.015625)"/>
       <path id="ArialMT-68" d="M 422 0 
L 422 4581 
L 984 4581 
L 984 2938 
Q 1378 3394 1978 3394 
Q 2347 3394 2619 3248 
Q 2891 3103 3008 2847 
Q 3125 2591 3125 2103 
L 3125 0 
L 2563 0 
L 2563 2103 
Q 2563 2525 2380 2717 
Q 2197 2909 1863 2909 
Q 1613 2909 1392 2779 
Q 1172 2650 1078 2428 
Q 984 2206 984 1816 
L 984 0 
L 422 0 
z
" transform="scale(0.015625)"/>
      </defs>
      <use xlink:href="#ArialMT-57"/>
      <use xlink:href="#ArialMT-49" x="94.384766"/>
      <use xlink:href="#ArialMT-53" x="122.167969"/>
      <use xlink:href="#ArialMT-44" x="188.867188"/>
      <use xlink:href="#ArialMT-20" x="261.083984"/>
      <use xlink:href="#ArialMT-46" x="288.867188"/>
      <use xlink:href="#ArialMT-61" x="349.951172"/>
      <use xlink:href="#ArialMT-69" x="405.566406"/>
      <use xlink:href="#ArialMT-72" x="427.783203"/>
      <use xlink:href="#ArialMT-20" x="461.083984"/>
      <use xlink:href="#ArialMT-50" x="488.867188"/>
      <use xlink:href="#ArialMT-61" x="555.566406"/>
      <use xlink:href="#ArialMT-74" x="611.181641"/>
      <use xlink:href="#ArialMT-68" x="638.964844"/>
     </g>
    </g>
    <g id="line2d_22">
     <path d="M 240.260865 51.78747 
L 251.260865 51.78747 
L 262.260865 51.78747 
" style="fill: none; stroke: #c44e52; stroke-width: 1.5; stroke-linecap: round"/>
     <g>
      <use xlink:href="#m4e7c74a198" x="251.260865" y="51.78747" style="fill: #c44e52; stroke: #c44e52"/>
     </g>
    </g>
    <g id="text_19">
     <!-- Final Convergence (24.996, 25.003) -->
     <g style="fill: #262626" transform="translate(271.060865 55.63747) scale(0.11 -0.11)">
      <defs>
       <path id="ArialMT-43" d="M 3763 1606 
L 4369 1453 
Q 4178 706 3683 314 
Q 3188 -78 2472 -78 
Q 1731 -78 1267 223 
Q 803 525 561 1097 
Q 319 1669 319 2325 
Q 319 3041 592 3573 
Q 866 4106 1370 4382 
Q 1875 4659 2481 4659 
Q 3169 4659 3637 4309 
Q 4106 3959 4291 3325 
L 3694 3184 
Q 3534 3684 3231 3912 
Q 2928 4141 2469 4141 
Q 1941 4141 1586 3887 
Q 1231 3634 1087 3207 
Q 944 2781 944 2328 
Q 944 1744 1114 1308 
Q 1284 872 1643 656 
Q 2003 441 2422 441 
Q 2931 441 3284 734 
Q 3638 1028 3763 1606 
z
" transform="scale(0.015625)"/>
       <path id="ArialMT-76" d="M 1344 0 
L 81 3319 
L 675 3319 
L 1388 1331 
Q 1503 1009 1600 663 
Q 1675 925 1809 1294 
L 2547 3319 
L 3125 3319 
L 1869 0 
L 1344 0 
z
" transform="scale(0.015625)"/>
       <path id="ArialMT-67" d="M 319 -275 
L 866 -356 
Q 900 -609 1056 -725 
Q 1266 -881 1628 -881 
Q 2019 -881 2231 -725 
Q 2444 -569 2519 -288 
Q 2563 -116 2559 434 
Q 2191 0 1641 0 
Q 956 0 581 494 
Q 206 988 206 1678 
Q 206 2153 378 2554 
Q 550 2956 876 3175 
Q 1203 3394 1644 3394 
Q 2231 3394 2613 2919 
L 2613 3319 
L 3131 3319 
L 3131 450 
Q 3131 -325 2973 -648 
Q 2816 -972 2473 -1159 
Q 2131 -1347 1631 -1347 
Q 1038 -1347 672 -1080 
Q 306 -813 319 -275 
z
M 784 1719 
Q 784 1066 1043 766 
Q 1303 466 1694 466 
Q 2081 466 2343 764 
Q 2606 1063 2606 1700 
Q 2606 2309 2336 2618 
Q 2066 2928 1684 2928 
Q 1309 2928 1046 2623 
Q 784 2319 784 1719 
z
" transform="scale(0.015625)"/>
       <path id="ArialMT-39" d="M 350 1059 
L 891 1109 
Q 959 728 1153 556 
Q 1347 384 1650 384 
Q 1909 384 2104 503 
Q 2300 622 2425 820 
Q 2550 1019 2634 1356 
Q 2719 1694 2719 2044 
Q 2719 2081 2716 2156 
Q 2547 1888 2255 1720 
Q 1963 1553 1622 1553 
Q 1053 1553 659 1965 
Q 266 2378 266 3053 
Q 266 3750 677 4175 
Q 1088 4600 1706 4600 
Q 2153 4600 2523 4359 
Q 2894 4119 3086 3673 
Q 3278 3228 3278 2384 
Q 3278 1506 3087 986 
Q 2897 466 2520 194 
Q 2144 -78 1638 -78 
Q 1100 -78 759 220 
Q 419 519 350 1059 
z
M 2653 3081 
Q 2653 3566 2395 3850 
Q 2138 4134 1775 4134 
Q 1400 4134 1122 3828 
Q 844 3522 844 3034 
Q 844 2597 1108 2323 
Q 1372 2050 1759 2050 
Q 2150 2050 2401 2323 
Q 2653 2597 2653 3081 
z
" transform="scale(0.015625)"/>
       <path id="ArialMT-36" d="M 3184 3459 
L 2625 3416 
Q 2550 3747 2413 3897 
Q 2184 4138 1850 4138 
Q 1581 4138 1378 3988 
Q 1113 3794 959 3422 
Q 806 3050 800 2363 
Q 1003 2672 1297 2822 
Q 1591 2972 1913 2972 
Q 2475 2972 2870 2558 
Q 3266 2144 3266 1488 
Q 3266 1056 3080 686 
Q 2894 316 2569 119 
Q 2244 -78 1831 -78 
Q 1128 -78 684 439 
Q 241 956 241 2144 
Q 241 3472 731 4075 
Q 1159 4600 1884 4600 
Q 2425 4600 2770 4297 
Q 3116 3994 3184 3459 
z
M 888 1484 
Q 888 1194 1011 928 
Q 1134 663 1356 523 
Q 1578 384 1822 384 
Q 2178 384 2434 671 
Q 2691 959 2691 1453 
Q 2691 1928 2437 2201 
Q 2184 2475 1800 2475 
Q 1419 2475 1153 2201 
Q 888 1928 888 1484 
z
" transform="scale(0.015625)"/>
      </defs>
      <use xlink:href="#ArialMT-46"/>
      <use xlink:href="#ArialMT-69" x="61.083984"/>
      <use xlink:href="#ArialMT-6e" x="83.300781"/>
      <use xlink:href="#ArialMT-61" x="138.916016"/>
      <use xlink:href="#ArialMT-6c" x="194.53125"/>
      <use xlink:href="#ArialMT-20" x="216.748047"/>
      <use xlink:href="#ArialMT-43" x="244.53125"/>
      <use xlink:href="#ArialMT-6f" x="316.748047"/>
      <use xlink:href="#ArialMT-6e" x="372.363281"/>
      <use xlink:href="#ArialMT-76" x="427.978516"/>
      <use xlink:href="#ArialMT-65" x="477.978516"/>
      <use xlink:href="#ArialMT-72" x="533.59375"/>
      <use xlink:href="#ArialMT-67" x="566.894531"/>
      <use xlink:href="#ArialMT-65" x="622.509766"/>
      <use xlink:href="#ArialMT-6e" x="678.125"/>
      <use xlink:href="#ArialMT-63" x="733.740234"/>
      <use xlink:href="#ArialMT-65" x="783.740234"/>
      <use xlink:href="#ArialMT-20" x="839.355469"/>
      <use xlink:href="#ArialMT-28" x="867.138672"/>
      <use xlink:href="#ArialMT-32" x="900.439453"/>
      <use xlink:href="#ArialMT-34" x="956.054688"/>
      <use xlink:href="#ArialMT-2e" x="1011.669922"/>
      <use xlink:href="#ArialMT-39" x="1039.453125"/>
      <use xlink:href="#ArialMT-39" x="1095.068359"/>
      <use xlink:href="#ArialMT-36" x="1150.683594"/>
      <use xlink:href="#ArialMT-2c" x="1206.298828"/>
      <use xlink:href="#ArialMT-20" x="1234.082031"/>
      <use xlink:href="#ArialMT-32" x="1261.865234"/>
      <use xlink:href="#ArialMT-35" x="1317.480469"/>
      <use xlink:href="#ArialMT-2e" x="1373.095703"/>
      <use xlink:href="#ArialMT-30" x="1400.878906"/>
      <use xlink:href="#ArialMT-30" x="1456.494141"/>
      <use xlink:href="#ArialMT-33" x="1512.109375"/>
      <use xlink:href="#ArialMT-29" x="1567.724609"/>
     </g>
    </g>
   </g>
  </g>
  <g id="axes_2">
   <g id="patch_8">
    <path d="M 39.995553 411.457365 
L 716.99976 411.457365 
L 716.99976 220.604396 
L 39.995553 220.604396 
z
" style="fill: #eaeaf2"/>
   </g>
   <g id="matplotlib.axis_3">
    <g id="xtick_7">
     <g id="line2d_23">
      <path d="M 70.768471 411.457365 
L 70.768471 220.604396 
" clip-path="url(#pe9813b539d)" style="fill: none; stroke: #ffffff; stroke-linecap: round"/>
     </g>
     <g id="text_20">
      <!-- 0 -->
      <g style="fill: #262626" transform="translate(67.709955 428.830959) scale(0.11 -0.11)">
       <use xlink:href="#ArialMT-30"/>
      </g>
     </g>
    </g>
    <g id="xtick_8">
     <g id="line2d_24">
      <path d="M 180.671751 411.457365 
L 180.671751 220.604396 
" clip-path="url(#pe9813b539d)" style="fill: none; stroke: #ffffff; stroke-linecap: round"/>
     </g>
     <g id="text_21">
      <!-- 5 -->
      <g style="fill: #262626" transform="translate(177.613236 428.830959) scale(0.11 -0.11)">
       <use xlink:href="#ArialMT-35"/>
      </g>
     </g>
    </g>
    <g id="xtick_9">
     <g id="line2d_25">
      <path d="M 290.575032 411.457365 
L 290.575032 220.604396 
" clip-path="url(#pe9813b539d)" style="fill: none; stroke: #ffffff; stroke-linecap: round"/>
     </g>
     <g id="text_22">
      <!-- 10 -->
      <g style="fill: #262626" transform="translate(284.458001 428.830959) scale(0.11 -0.11)">
       <use xlink:href="#ArialMT-31"/>
       <use xlink:href="#ArialMT-30" x="55.615234"/>
      </g>
     </g>
    </g>
    <g id="xtick_10">
     <g id="line2d_26">
      <path d="M 400.478312 411.457365 
L 400.478312 220.604396 
" clip-path="url(#pe9813b539d)" style="fill: none; stroke: #ffffff; stroke-linecap: round"/>
     </g>
     <g id="text_23">
      <!-- 15 -->
      <g style="fill: #262626" transform="translate(394.361281 428.830959) scale(0.11 -0.11)">
       <use xlink:href="#ArialMT-31"/>
       <use xlink:href="#ArialMT-35" x="55.615234"/>
      </g>
     </g>
    </g>
    <g id="xtick_11">
     <g id="line2d_27">
      <path d="M 510.381593 411.457365 
L 510.381593 220.604396 
" clip-path="url(#pe9813b539d)" style="fill: none; stroke: #ffffff; stroke-linecap: round"/>
     </g>
     <g id="text_24">
      <!-- 20 -->
      <g style="fill: #262626" transform="translate(504.264562 428.830959) scale(0.11 -0.11)">
       <use xlink:href="#ArialMT-32"/>
       <use xlink:href="#ArialMT-30" x="55.615234"/>
      </g>
     </g>
    </g>
    <g id="xtick_12">
     <g id="line2d_28">
      <path d="M 620.284873 411.457365 
L 620.284873 220.604396 
" clip-path="url(#pe9813b539d)" style="fill: none; stroke: #ffffff; stroke-linecap: round"/>
     </g>
     <g id="text_25">
      <!-- 25 -->
      <g style="fill: #262626" transform="translate(614.167842 428.830959) scale(0.11 -0.11)">
       <use xlink:href="#ArialMT-32"/>
       <use xlink:href="#ArialMT-35" x="55.615234"/>
      </g>
     </g>
    </g>
    <g id="text_26">
     <!-- Number of Transmissions (RTTs) -->
     <g style="fill: #262626" transform="translate(290.926719 443.752834) scale(0.12 -0.12)">
      <defs>
       <path id="ArialMT-4e" d="M 488 0 
L 488 4581 
L 1109 4581 
L 3516 984 
L 3516 4581 
L 4097 4581 
L 4097 0 
L 3475 0 
L 1069 3600 
L 1069 0 
L 488 0 
z
" transform="scale(0.015625)"/>
       <path id="ArialMT-75" d="M 2597 0 
L 2597 488 
Q 2209 -75 1544 -75 
Q 1250 -75 995 37 
Q 741 150 617 320 
Q 494 491 444 738 
Q 409 903 409 1263 
L 409 3319 
L 972 3319 
L 972 1478 
Q 972 1038 1006 884 
Q 1059 663 1231 536 
Q 1403 409 1656 409 
Q 1909 409 2131 539 
Q 2353 669 2445 892 
Q 2538 1116 2538 1541 
L 2538 3319 
L 3100 3319 
L 3100 0 
L 2597 0 
z
" transform="scale(0.015625)"/>
       <path id="ArialMT-62" d="M 941 0 
L 419 0 
L 419 4581 
L 981 4581 
L 981 2947 
Q 1338 3394 1891 3394 
Q 2197 3394 2470 3270 
Q 2744 3147 2920 2923 
Q 3097 2700 3197 2384 
Q 3297 2069 3297 1709 
Q 3297 856 2875 390 
Q 2453 -75 1863 -75 
Q 1275 -75 941 416 
L 941 0 
z
M 934 1684 
Q 934 1088 1097 822 
Q 1363 388 1816 388 
Q 2184 388 2453 708 
Q 2722 1028 2722 1663 
Q 2722 2313 2464 2622 
Q 2206 2931 1841 2931 
Q 1472 2931 1203 2611 
Q 934 2291 934 1684 
z
" transform="scale(0.015625)"/>
       <path id="ArialMT-54" d="M 1659 0 
L 1659 4041 
L 150 4041 
L 150 4581 
L 3781 4581 
L 3781 4041 
L 2266 4041 
L 2266 0 
L 1659 0 
z
" transform="scale(0.015625)"/>
       <path id="ArialMT-52" d="M 503 0 
L 503 4581 
L 2534 4581 
Q 3147 4581 3465 4457 
Q 3784 4334 3975 4021 
Q 4166 3709 4166 3331 
Q 4166 2844 3850 2509 
Q 3534 2175 2875 2084 
Q 3116 1969 3241 1856 
Q 3506 1613 3744 1247 
L 4541 0 
L 3778 0 
L 3172 953 
Q 2906 1366 2734 1584 
Q 2563 1803 2427 1890 
Q 2291 1978 2150 2013 
Q 2047 2034 1813 2034 
L 1109 2034 
L 1109 0 
L 503 0 
z
M 1109 2559 
L 2413 2559 
Q 2828 2559 3062 2645 
Q 3297 2731 3419 2920 
Q 3541 3109 3541 3331 
Q 3541 3656 3305 3865 
Q 3069 4075 2559 4075 
L 1109 4075 
L 1109 2559 
z
" transform="scale(0.015625)"/>
      </defs>
      <use xlink:href="#ArialMT-4e"/>
      <use xlink:href="#ArialMT-75" x="72.216797"/>
      <use xlink:href="#ArialMT-6d" x="127.832031"/>
      <use xlink:href="#ArialMT-62" x="211.132812"/>
      <use xlink:href="#ArialMT-65" x="266.748047"/>
      <use xlink:href="#ArialMT-72" x="322.363281"/>
      <use xlink:href="#ArialMT-20" x="355.664062"/>
      <use xlink:href="#ArialMT-6f" x="383.447266"/>
      <use xlink:href="#ArialMT-66" x="439.0625"/>
      <use xlink:href="#ArialMT-20" x="466.845703"/>
      <use xlink:href="#ArialMT-54" x="492.878906"/>
      <use xlink:href="#ArialMT-72" x="550.212891"/>
      <use xlink:href="#ArialMT-61" x="583.513672"/>
      <use xlink:href="#ArialMT-6e" x="639.128906"/>
      <use xlink:href="#ArialMT-73" x="694.744141"/>
      <use xlink:href="#ArialMT-6d" x="744.744141"/>
      <use xlink:href="#ArialMT-69" x="828.044922"/>
      <use xlink:href="#ArialMT-73" x="850.261719"/>
      <use xlink:href="#ArialMT-73" x="900.261719"/>
      <use xlink:href="#ArialMT-69" x="950.261719"/>
      <use xlink:href="#ArialMT-6f" x="972.478516"/>
      <use xlink:href="#ArialMT-6e" x="1028.09375"/>
      <use xlink:href="#ArialMT-73" x="1083.708984"/>
      <use xlink:href="#ArialMT-20" x="1133.708984"/>
      <use xlink:href="#ArialMT-28" x="1161.492188"/>
      <use xlink:href="#ArialMT-52" x="1194.792969"/>
      <use xlink:href="#ArialMT-54" x="1265.259766"/>
      <use xlink:href="#ArialMT-54" x="1326.34375"/>
      <use xlink:href="#ArialMT-73" x="1376.302734"/>
      <use xlink:href="#ArialMT-29" x="1426.302734"/>
     </g>
    </g>
   </g>
   <g id="matplotlib.axis_4">
    <g id="ytick_7">
     <g id="line2d_29">
      <path d="M 39.995553 380.147708 
L 716.99976 380.147708 
" clip-path="url(#pe9813b539d)" style="fill: none; stroke: #ffffff; stroke-linecap: round"/>
     </g>
     <g id="text_27">
      <!-- 5 -->
      <g style="fill: #262626" transform="translate(24.378521 384.084505) scale(0.11 -0.11)">
       <use xlink:href="#ArialMT-35"/>
      </g>
     </g>
    </g>
    <g id="ytick_8">
     <g id="line2d_30">
      <path d="M 39.995553 342.423505 
L 716.99976 342.423505 
" clip-path="url(#pe9813b539d)" style="fill: none; stroke: #ffffff; stroke-linecap: round"/>
     </g>
     <g id="text_28">
      <!-- 10 -->
      <g style="fill: #262626" transform="translate(18.26149 346.360302) scale(0.11 -0.11)">
       <use xlink:href="#ArialMT-31"/>
       <use xlink:href="#ArialMT-30" x="55.615234"/>
      </g>
     </g>
    </g>
    <g id="ytick_9">
     <g id="line2d_31">
      <path d="M 39.995553 304.699302 
L 716.99976 304.699302 
" clip-path="url(#pe9813b539d)" style="fill: none; stroke: #ffffff; stroke-linecap: round"/>
     </g>
     <g id="text_29">
      <!-- 15 -->
      <g style="fill: #262626" transform="translate(18.26149 308.636099) scale(0.11 -0.11)">
       <use xlink:href="#ArialMT-31"/>
       <use xlink:href="#ArialMT-35" x="55.615234"/>
      </g>
     </g>
    </g>
    <g id="ytick_10">
     <g id="line2d_32">
      <path d="M 39.995553 266.975098 
L 716.99976 266.975098 
" clip-path="url(#pe9813b539d)" style="fill: none; stroke: #ffffff; stroke-linecap: round"/>
     </g>
     <g id="text_30">
      <!-- 20 -->
      <g style="fill: #262626" transform="translate(18.26149 270.911895) scale(0.11 -0.11)">
       <use xlink:href="#ArialMT-32"/>
       <use xlink:href="#ArialMT-30" x="55.615234"/>
      </g>
     </g>
    </g>
    <g id="ytick_11">
     <g id="line2d_33">
      <path d="M 39.995553 229.250895 
L 716.99976 229.250895 
" clip-path="url(#pe9813b539d)" style="fill: none; stroke: #ffffff; stroke-linecap: round"/>
     </g>
     <g id="text_31">
      <!-- 25 -->
      <g style="fill: #262626" transform="translate(18.26149 233.187692) scale(0.11 -0.11)">
       <use xlink:href="#ArialMT-32"/>
       <use xlink:href="#ArialMT-35" x="55.615234"/>
      </g>
     </g>
    </g>
    <g id="text_32">
     <!-- Congestion Window Size (Segments) -->
     <g style="fill: #262626" transform="translate(11.735865 415.404006) rotate(-90) scale(0.12 -0.12)">
      <defs>
       <path id="ArialMT-64" d="M 2575 0 
L 2575 419 
Q 2259 -75 1647 -75 
Q 1250 -75 917 144 
Q 584 363 401 755 
Q 219 1147 219 1656 
Q 219 2153 384 2558 
Q 550 2963 881 3178 
Q 1213 3394 1622 3394 
Q 1922 3394 2156 3267 
Q 2391 3141 2538 2938 
L 2538 4581 
L 3097 4581 
L 3097 0 
L 2575 0 
z
M 797 1656 
Q 797 1019 1065 703 
Q 1334 388 1700 388 
Q 2069 388 2326 689 
Q 2584 991 2584 1609 
Q 2584 2291 2321 2609 
Q 2059 2928 1675 2928 
Q 1300 2928 1048 2622 
Q 797 2316 797 1656 
z
" transform="scale(0.015625)"/>
       <path id="ArialMT-77" d="M 1034 0 
L 19 3319 
L 600 3319 
L 1128 1403 
L 1325 691 
Q 1338 744 1497 1375 
L 2025 3319 
L 2603 3319 
L 3100 1394 
L 3266 759 
L 3456 1400 
L 4025 3319 
L 4572 3319 
L 3534 0 
L 2950 0 
L 2422 1988 
L 2294 2553 
L 1622 0 
L 1034 0 
z
" transform="scale(0.015625)"/>
       <path id="ArialMT-7a" d="M 125 0 
L 125 456 
L 2238 2881 
Q 1878 2863 1603 2863 
L 250 2863 
L 250 3319 
L 2963 3319 
L 2963 2947 
L 1166 841 
L 819 456 
Q 1197 484 1528 484 
L 3063 484 
L 3063 0 
L 125 0 
z
" transform="scale(0.015625)"/>
      </defs>
      <use xlink:href="#ArialMT-43"/>
      <use xlink:href="#ArialMT-6f" x="72.216797"/>
      <use xlink:href="#ArialMT-6e" x="127.832031"/>
      <use xlink:href="#ArialMT-67" x="183.447266"/>
      <use xlink:href="#ArialMT-65" x="239.0625"/>
      <use xlink:href="#ArialMT-73" x="294.677734"/>
      <use xlink:href="#ArialMT-74" x="344.677734"/>
      <use xlink:href="#ArialMT-69" x="372.460938"/>
      <use xlink:href="#ArialMT-6f" x="394.677734"/>
      <use xlink:href="#ArialMT-6e" x="450.292969"/>
      <use xlink:href="#ArialMT-20" x="505.908203"/>
      <use xlink:href="#ArialMT-57" x="533.691406"/>
      <use xlink:href="#ArialMT-69" x="628.076172"/>
      <use xlink:href="#ArialMT-6e" x="650.292969"/>
      <use xlink:href="#ArialMT-64" x="705.908203"/>
      <use xlink:href="#ArialMT-6f" x="761.523438"/>
      <use xlink:href="#ArialMT-77" x="817.138672"/>
      <use xlink:href="#ArialMT-20" x="889.355469"/>
      <use xlink:href="#ArialMT-53" x="917.138672"/>
      <use xlink:href="#ArialMT-69" x="983.837891"/>
      <use xlink:href="#ArialMT-7a" x="1006.054688"/>
      <use xlink:href="#ArialMT-65" x="1056.054688"/>
      <use xlink:href="#ArialMT-20" x="1111.669922"/>
      <use xlink:href="#ArialMT-28" x="1139.453125"/>
      <use xlink:href="#ArialMT-53" x="1172.753906"/>
      <use xlink:href="#ArialMT-65" x="1239.453125"/>
      <use xlink:href="#ArialMT-67" x="1295.068359"/>
      <use xlink:href="#ArialMT-6d" x="1350.683594"/>
      <use xlink:href="#ArialMT-65" x="1433.984375"/>
      <use xlink:href="#ArialMT-6e" x="1489.599609"/>
      <use xlink:href="#ArialMT-74" x="1545.214844"/>
      <use xlink:href="#ArialMT-73" x="1572.998047"/>
      <use xlink:href="#ArialMT-29" x="1622.998047"/>
     </g>
    </g>
   </g>
   <g id="line2d_34">
    <path d="M 70.768471 402.78223 
L 92.749127 384.372819 
L 114.729783 355.588216 
L 136.710439 322.704932 
L 158.691095 295.862672 
L 180.671751 277.209796 
L 202.652408 264.084546 
L 224.633064 254.587231 
L 246.61372 247.656776 
L 268.594376 242.60205 
L 290.575032 238.924723 
L 312.555688 236.25543 
L 334.536344 234.320739 
L 356.517 232.919714 
L 378.497656 231.905624 
L 400.478312 231.171774 
L 422.458968 230.640775 
L 444.439625 230.256568 
L 466.420281 229.978574 
L 488.400937 229.77743 
L 510.381593 229.631889 
L 532.362249 229.526579 
L 554.342905 229.450379 
L 576.323561 229.395241 
L 598.304217 229.355344 
L 620.284873 229.326475 
L 642.265529 229.305585 
L 664.246185 229.290469 
L 686.226841 229.279531 
" clip-path="url(#pe9813b539d)" style="fill: none; stroke: #4c72b0; stroke-linecap: round"/>
    <defs>
     <path id="mf4c02a9009" d="M 0 1.5 
C 0.397805 1.5 0.77937 1.341951 1.06066 1.06066 
C 1.341951 0.77937 1.5 0.397805 1.5 0 
C 1.5 -0.397805 1.341951 -0.77937 1.06066 -1.06066 
C 0.77937 -1.341951 0.397805 -1.5 0 -1.5 
C -0.397805 -1.5 -0.77937 -1.341951 -1.06066 -1.06066 
C -1.341951 -0.77937 -1.5 -0.397805 -1.5 0 
C -1.5 0.397805 -1.341951 0.77937 -1.06066 1.06066 
C -0.77937 1.341951 -0.397805 1.5 0 1.5 
z
" style="stroke: #4c72b0"/>
    </defs>
    <g clip-path="url(#pe9813b539d)">
     <use xlink:href="#mf4c02a9009" x="70.768471" y="402.78223" style="fill: #4c72b0; stroke: #4c72b0"/>
     <use xlink:href="#mf4c02a9009" x="92.749127" y="384.372819" style="fill: #4c72b0; stroke: #4c72b0"/>
     <use xlink:href="#mf4c02a9009" x="114.729783" y="355.588216" style="fill: #4c72b0; stroke: #4c72b0"/>
     <use xlink:href="#mf4c02a9009" x="136.710439" y="322.704932" style="fill: #4c72b0; stroke: #4c72b0"/>
     <use xlink:href="#mf4c02a9009" x="158.691095" y="295.862672" style="fill: #4c72b0; stroke: #4c72b0"/>
     <use xlink:href="#mf4c02a9009" x="180.671751" y="277.209796" style="fill: #4c72b0; stroke: #4c72b0"/>
     <use xlink:href="#mf4c02a9009" x="202.652408" y="264.084546" style="fill: #4c72b0; stroke: #4c72b0"/>
     <use xlink:href="#mf4c02a9009" x="224.633064" y="254.587231" style="fill: #4c72b0; stroke: #4c72b0"/>
     <use xlink:href="#mf4c02a9009" x="246.61372" y="247.656776" style="fill: #4c72b0; stroke: #4c72b0"/>
     <use xlink:href="#mf4c02a9009" x="268.594376" y="242.60205" style="fill: #4c72b0; stroke: #4c72b0"/>
     <use xlink:href="#mf4c02a9009" x="290.575032" y="238.924723" style="fill: #4c72b0; stroke: #4c72b0"/>
     <use xlink:href="#mf4c02a9009" x="312.555688" y="236.25543" style="fill: #4c72b0; stroke: #4c72b0"/>
     <use xlink:href="#mf4c02a9009" x="334.536344" y="234.320739" style="fill: #4c72b0; stroke: #4c72b0"/>
     <use xlink:href="#mf4c02a9009" x="356.517" y="232.919714" style="fill: #4c72b0; stroke: #4c72b0"/>
     <use xlink:href="#mf4c02a9009" x="378.497656" y="231.905624" style="fill: #4c72b0; stroke: #4c72b0"/>
     <use xlink:href="#mf4c02a9009" x="400.478312" y="231.171774" style="fill: #4c72b0; stroke: #4c72b0"/>
     <use xlink:href="#mf4c02a9009" x="422.458968" y="230.640775" style="fill: #4c72b0; stroke: #4c72b0"/>
     <use xlink:href="#mf4c02a9009" x="444.439625" y="230.256568" style="fill: #4c72b0; stroke: #4c72b0"/>
     <use xlink:href="#mf4c02a9009" x="466.420281" y="229.978574" style="fill: #4c72b0; stroke: #4c72b0"/>
     <use xlink:href="#mf4c02a9009" x="488.400937" y="229.77743" style="fill: #4c72b0; stroke: #4c72b0"/>
     <use xlink:href="#mf4c02a9009" x="510.381593" y="229.631889" style="fill: #4c72b0; stroke: #4c72b0"/>
     <use xlink:href="#mf4c02a9009" x="532.362249" y="229.526579" style="fill: #4c72b0; stroke: #4c72b0"/>
     <use xlink:href="#mf4c02a9009" x="554.342905" y="229.450379" style="fill: #4c72b0; stroke: #4c72b0"/>
     <use xlink:href="#mf4c02a9009" x="576.323561" y="229.395241" style="fill: #4c72b0; stroke: #4c72b0"/>
     <use xlink:href="#mf4c02a9009" x="598.304217" y="229.355344" style="fill: #4c72b0; stroke: #4c72b0"/>
     <use xlink:href="#mf4c02a9009" x="620.284873" y="229.326475" style="fill: #4c72b0; stroke: #4c72b0"/>
     <use xlink:href="#mf4c02a9009" x="642.265529" y="229.305585" style="fill: #4c72b0; stroke: #4c72b0"/>
     <use xlink:href="#mf4c02a9009" x="664.246185" y="229.290469" style="fill: #4c72b0; stroke: #4c72b0"/>
     <use xlink:href="#mf4c02a9009" x="686.226841" y="229.279531" style="fill: #4c72b0; stroke: #4c72b0"/>
    </g>
   </g>
   <g id="patch_9">
    <path d="M 39.995553 411.457365 
L 39.995553 220.604396 
" style="fill: none; stroke: #ffffff; stroke-width: 1.25; stroke-linejoin: miter; stroke-linecap: square"/>
   </g>
   <g id="patch_10">
    <path d="M 716.99976 411.457365 
L 716.99976 220.604396 
" style="fill: none; stroke: #ffffff; stroke-width: 1.25; stroke-linejoin: miter; stroke-linecap: square"/>
   </g>
   <g id="patch_11">
    <path d="M 39.995553 411.457365 
L 716.99976 411.457365 
" style="fill: none; stroke: #ffffff; stroke-width: 1.25; stroke-linejoin: miter; stroke-linecap: square"/>
   </g>
   <g id="patch_12">
    <path d="M 39.995553 220.604396 
L 716.99976 220.604396 
" style="fill: none; stroke: #ffffff; stroke-width: 1.25; stroke-linejoin: miter; stroke-linecap: square"/>
   </g>
   <g id="text_33">
    <g id="patch_13">
     <path d="M 378.497656 253.338769 
L 552.097656 253.338769 
Q 555.097656 253.338769 555.097656 250.338769 
L 555.097656 240.838769 
Q 555.097656 237.838769 552.097656 237.838769 
L 378.497656 237.838769 
Q 375.497656 237.838769 375.497656 240.838769 
L 375.497656 250.338769 
Q 375.497656 253.338769 378.497656 253.338769 
z
" style="fill: #ffffff; stroke: #000000; stroke-linejoin: miter"/>
    </g>
    <!-- Sending Rate $x_1$: 21.39 segment / RTT -->
    <g transform="translate(378.497656 248.138769) scale(0.1 -0.1)">
     <defs>
      <path id="ArialMT-3a" d="M 578 2678 
L 578 3319 
L 1219 3319 
L 1219 2678 
L 578 2678 
z
M 578 0 
L 578 641 
L 1219 641 
L 1219 0 
L 578 0 
z
" transform="scale(0.015625)"/>
      <path id="ArialMT-2f" d="M 0 -78 
L 1328 4659 
L 1778 4659 
L 453 -78 
L 0 -78 
z
" transform="scale(0.015625)"/>
     </defs>
     <use xlink:href="#ArialMT-53" transform="translate(0 0.203125)"/>
     <use xlink:href="#ArialMT-65" transform="translate(66.699219 0.203125)"/>
     <use xlink:href="#ArialMT-6e" transform="translate(122.314453 0.203125)"/>
     <use xlink:href="#ArialMT-64" transform="translate(177.929688 0.203125)"/>
     <use xlink:href="#ArialMT-69" transform="translate(233.544922 0.203125)"/>
     <use xlink:href="#ArialMT-6e" transform="translate(255.761719 0.203125)"/>
     <use xlink:href="#ArialMT-67" transform="translate(311.376953 0.203125)"/>
     <use xlink:href="#ArialMT-20" transform="translate(366.992188 0.203125)"/>
     <use xlink:href="#ArialMT-52" transform="translate(394.775391 0.203125)"/>
     <use xlink:href="#ArialMT-61" transform="translate(466.992188 0.203125)"/>
     <use xlink:href="#ArialMT-74" transform="translate(522.607422 0.203125)"/>
     <use xlink:href="#ArialMT-65" transform="translate(550.390625 0.203125)"/>
     <use xlink:href="#ArialMT-20" transform="translate(606.005859 0.203125)"/>
     <use xlink:href="#DejaVuSans-Oblique-78" transform="translate(633.789062 0.203125)"/>
     <use xlink:href="#DejaVuSans-31" transform="translate(692.96875 -16.203125) scale(0.7)"/>
     <use xlink:href="#ArialMT-3a" transform="translate(740.239258 0.203125)"/>
     <use xlink:href="#ArialMT-20" transform="translate(768.022461 0.203125)"/>
     <use xlink:href="#ArialMT-32" transform="translate(795.805664 0.203125)"/>
     <use xlink:href="#ArialMT-31" transform="translate(851.420898 0.203125)"/>
     <use xlink:href="#ArialMT-2e" transform="translate(907.036133 0.203125)"/>
     <use xlink:href="#ArialMT-33" transform="translate(934.819336 0.203125)"/>
     <use xlink:href="#ArialMT-39" transform="translate(990.43457 0.203125)"/>
     <use xlink:href="#ArialMT-20" transform="translate(1046.049805 0.203125)"/>
     <use xlink:href="#ArialMT-73" transform="translate(1073.833008 0.203125)"/>
     <use xlink:href="#ArialMT-65" transform="translate(1123.833008 0.203125)"/>
     <use xlink:href="#ArialMT-67" transform="translate(1179.448242 0.203125)"/>
     <use xlink:href="#ArialMT-6d" transform="translate(1235.063477 0.203125)"/>
     <use xlink:href="#ArialMT-65" transform="translate(1318.364258 0.203125)"/>
     <use xlink:href="#ArialMT-6e" transform="translate(1373.979492 0.203125)"/>
     <use xlink:href="#ArialMT-74" transform="translate(1429.594727 0.203125)"/>
     <use xlink:href="#ArialMT-20" transform="translate(1457.37793 0.203125)"/>
     <use xlink:href="#ArialMT-2f" transform="translate(1485.161133 0.203125)"/>
     <use xlink:href="#ArialMT-20" transform="translate(1512.944336 0.203125)"/>
     <use xlink:href="#ArialMT-52" transform="translate(1540.727539 0.203125)"/>
     <use xlink:href="#ArialMT-54" transform="translate(1612.944336 0.203125)"/>
     <use xlink:href="#ArialMT-54" transform="translate(1674.02832 0.203125)"/>
    </g>
   </g>
   <g id="text_34">
    <!-- Congestion Window for $x_{1}$ -->
    <g style="fill: #262626" transform="translate(308.357656 214.604396) scale(0.12 -0.12)">
     <use xlink:href="#ArialMT-43" transform="translate(0 0.203125)"/>
     <use xlink:href="#ArialMT-6f" transform="translate(72.216797 0.203125)"/>
     <use xlink:href="#ArialMT-6e" transform="translate(127.832031 0.203125)"/>
     <use xlink:href="#ArialMT-67" transform="translate(183.447266 0.203125)"/>
     <use xlink:href="#ArialMT-65" transform="translate(239.0625 0.203125)"/>
     <use xlink:href="#ArialMT-73" transform="translate(294.677734 0.203125)"/>
     <use xlink:href="#ArialMT-74" transform="translate(344.677734 0.203125)"/>
     <use xlink:href="#ArialMT-69" transform="translate(372.460938 0.203125)"/>
     <use xlink:href="#ArialMT-6f" transform="translate(394.677734 0.203125)"/>
     <use xlink:href="#ArialMT-6e" transform="translate(450.292969 0.203125)"/>
     <use xlink:href="#ArialMT-20" transform="translate(505.908203 0.203125)"/>
     <use xlink:href="#ArialMT-57" transform="translate(533.691406 0.203125)"/>
     <use xlink:href="#ArialMT-69" transform="translate(628.076172 0.203125)"/>
     <use xlink:href="#ArialMT-6e" transform="translate(650.292969 0.203125)"/>
     <use xlink:href="#ArialMT-64" transform="translate(705.908203 0.203125)"/>
     <use xlink:href="#ArialMT-6f" transform="translate(761.523438 0.203125)"/>
     <use xlink:href="#ArialMT-77" transform="translate(817.138672 0.203125)"/>
     <use xlink:href="#ArialMT-20" transform="translate(889.355469 0.203125)"/>
     <use xlink:href="#ArialMT-66" transform="translate(917.138672 0.203125)"/>
     <use xlink:href="#ArialMT-6f" transform="translate(944.921875 0.203125)"/>
     <use xlink:href="#ArialMT-72" transform="translate(1000.537109 0.203125)"/>
     <use xlink:href="#ArialMT-20" transform="translate(1033.837891 0.203125)"/>
     <use xlink:href="#DejaVuSans-Oblique-78" transform="translate(1061.621094 0.203125)"/>
     <use xlink:href="#DejaVuSans-31" transform="translate(1120.800781 -16.203125) scale(0.7)"/>
    </g>
   </g>
   <g id="legend_2">
    <g id="patch_14">
     <path d="M 47.695553 245.227208 
L 195.392896 245.227208 
Q 197.592896 245.227208 197.592896 243.027208 
L 197.592896 228.304396 
Q 197.592896 226.104396 195.392896 226.104396 
L 47.695553 226.104396 
Q 45.495553 226.104396 45.495553 228.304396 
L 45.495553 243.027208 
Q 45.495553 245.227208 47.695553 245.227208 
z
" style="fill: #eaeaf2; opacity: 0.8; stroke: #cccccc; stroke-linejoin: miter"/>
    </g>
    <g id="line2d_35">
     <path d="M 49.895553 234.662052 
L 60.895553 234.662052 
L 71.895553 234.662052 
" style="fill: none; stroke: #4c72b0; stroke-linecap: round"/>
     <g>
      <use xlink:href="#mf4c02a9009" x="60.895553" y="234.662052" style="fill: #4c72b0; stroke: #4c72b0"/>
     </g>
    </g>
    <g id="text_35">
     <!-- Congestion Window x1 -->
     <g style="fill: #262626" transform="translate(80.695553 238.512052) scale(0.11 -0.11)">
      <defs>
       <path id="ArialMT-78" d="M 47 0 
L 1259 1725 
L 138 3319 
L 841 3319 
L 1350 2541 
Q 1494 2319 1581 2169 
Q 1719 2375 1834 2534 
L 2394 3319 
L 3066 3319 
L 1919 1756 
L 3153 0 
L 2463 0 
L 1781 1031 
L 1600 1309 
L 728 0 
L 47 0 
z
" transform="scale(0.015625)"/>
      </defs>
      <use xlink:href="#ArialMT-43"/>
      <use xlink:href="#ArialMT-6f" x="72.216797"/>
      <use xlink:href="#ArialMT-6e" x="127.832031"/>
      <use xlink:href="#ArialMT-67" x="183.447266"/>
      <use xlink:href="#ArialMT-65" x="239.0625"/>
      <use xlink:href="#ArialMT-73" x="294.677734"/>
      <use xlink:href="#ArialMT-74" x="344.677734"/>
      <use xlink:href="#ArialMT-69" x="372.460938"/>
      <use xlink:href="#ArialMT-6f" x="394.677734"/>
      <use xlink:href="#ArialMT-6e" x="450.292969"/>
      <use xlink:href="#ArialMT-20" x="505.908203"/>
      <use xlink:href="#ArialMT-57" x="533.691406"/>
      <use xlink:href="#ArialMT-69" x="628.076172"/>
      <use xlink:href="#ArialMT-6e" x="650.292969"/>
      <use xlink:href="#ArialMT-64" x="705.908203"/>
      <use xlink:href="#ArialMT-6f" x="761.523438"/>
      <use xlink:href="#ArialMT-77" x="817.138672"/>
      <use xlink:href="#ArialMT-20" x="889.355469"/>
      <use xlink:href="#ArialMT-78" x="917.138672"/>
      <use xlink:href="#ArialMT-31" x="967.138672"/>
     </g>
    </g>
   </g>
  </g>
  <g id="axes_3">
   <g id="patch_15">
    <path d="M 39.995553 610.178666 
L 716.99976 610.178666 
L 716.99976 467.038939 
L 39.995553 467.038939 
z
" style="fill: #eaeaf2"/>
   </g>
   <g id="matplotlib.axis_5">
    <g id="xtick_13">
     <g id="line2d_36">
      <path d="M 70.768471 610.178666 
L 70.768471 467.038939 
" clip-path="url(#peab60cf4a9)" style="fill: none; stroke: #ffffff; stroke-linecap: round"/>
     </g>
     <g id="text_36">
      <!-- 0 -->
      <g style="fill: #262626" transform="translate(67.709955 627.55226) scale(0.11 -0.11)">
       <use xlink:href="#ArialMT-30"/>
      </g>
     </g>
    </g>
    <g id="xtick_14">
     <g id="line2d_37">
      <path d="M 180.671751 610.178666 
L 180.671751 467.038939 
" clip-path="url(#peab60cf4a9)" style="fill: none; stroke: #ffffff; stroke-linecap: round"/>
     </g>
     <g id="text_37">
      <!-- 5 -->
      <g style="fill: #262626" transform="translate(177.613236 627.55226) scale(0.11 -0.11)">
       <use xlink:href="#ArialMT-35"/>
      </g>
     </g>
    </g>
    <g id="xtick_15">
     <g id="line2d_38">
      <path d="M 290.575032 610.178666 
L 290.575032 467.038939 
" clip-path="url(#peab60cf4a9)" style="fill: none; stroke: #ffffff; stroke-linecap: round"/>
     </g>
     <g id="text_38">
      <!-- 10 -->
      <g style="fill: #262626" transform="translate(284.458001 627.55226) scale(0.11 -0.11)">
       <use xlink:href="#ArialMT-31"/>
       <use xlink:href="#ArialMT-30" x="55.615234"/>
      </g>
     </g>
    </g>
    <g id="xtick_16">
     <g id="line2d_39">
      <path d="M 400.478312 610.178666 
L 400.478312 467.038939 
" clip-path="url(#peab60cf4a9)" style="fill: none; stroke: #ffffff; stroke-linecap: round"/>
     </g>
     <g id="text_39">
      <!-- 15 -->
      <g style="fill: #262626" transform="translate(394.361281 627.55226) scale(0.11 -0.11)">
       <use xlink:href="#ArialMT-31"/>
       <use xlink:href="#ArialMT-35" x="55.615234"/>
      </g>
     </g>
    </g>
    <g id="xtick_17">
     <g id="line2d_40">
      <path d="M 510.381593 610.178666 
L 510.381593 467.038939 
" clip-path="url(#peab60cf4a9)" style="fill: none; stroke: #ffffff; stroke-linecap: round"/>
     </g>
     <g id="text_40">
      <!-- 20 -->
      <g style="fill: #262626" transform="translate(504.264562 627.55226) scale(0.11 -0.11)">
       <use xlink:href="#ArialMT-32"/>
       <use xlink:href="#ArialMT-30" x="55.615234"/>
      </g>
     </g>
    </g>
    <g id="xtick_18">
     <g id="line2d_41">
      <path d="M 620.284873 610.178666 
L 620.284873 467.038939 
" clip-path="url(#peab60cf4a9)" style="fill: none; stroke: #ffffff; stroke-linecap: round"/>
     </g>
     <g id="text_41">
      <!-- 25 -->
      <g style="fill: #262626" transform="translate(614.167842 627.55226) scale(0.11 -0.11)">
       <use xlink:href="#ArialMT-32"/>
       <use xlink:href="#ArialMT-35" x="55.615234"/>
      </g>
     </g>
    </g>
    <g id="text_42">
     <!-- Number of Transmissions (RTTs) -->
     <g style="fill: #262626" transform="translate(290.926719 642.474135) scale(0.12 -0.12)">
      <use xlink:href="#ArialMT-4e"/>
      <use xlink:href="#ArialMT-75" x="72.216797"/>
      <use xlink:href="#ArialMT-6d" x="127.832031"/>
      <use xlink:href="#ArialMT-62" x="211.132812"/>
      <use xlink:href="#ArialMT-65" x="266.748047"/>
      <use xlink:href="#ArialMT-72" x="322.363281"/>
      <use xlink:href="#ArialMT-20" x="355.664062"/>
      <use xlink:href="#ArialMT-6f" x="383.447266"/>
      <use xlink:href="#ArialMT-66" x="439.0625"/>
      <use xlink:href="#ArialMT-20" x="466.845703"/>
      <use xlink:href="#ArialMT-54" x="492.878906"/>
      <use xlink:href="#ArialMT-72" x="550.212891"/>
      <use xlink:href="#ArialMT-61" x="583.513672"/>
      <use xlink:href="#ArialMT-6e" x="639.128906"/>
      <use xlink:href="#ArialMT-73" x="694.744141"/>
      <use xlink:href="#ArialMT-6d" x="744.744141"/>
      <use xlink:href="#ArialMT-69" x="828.044922"/>
      <use xlink:href="#ArialMT-73" x="850.261719"/>
      <use xlink:href="#ArialMT-73" x="900.261719"/>
      <use xlink:href="#ArialMT-69" x="950.261719"/>
      <use xlink:href="#ArialMT-6f" x="972.478516"/>
      <use xlink:href="#ArialMT-6e" x="1028.09375"/>
      <use xlink:href="#ArialMT-73" x="1083.708984"/>
      <use xlink:href="#ArialMT-20" x="1133.708984"/>
      <use xlink:href="#ArialMT-28" x="1161.492188"/>
      <use xlink:href="#ArialMT-52" x="1194.792969"/>
      <use xlink:href="#ArialMT-54" x="1265.259766"/>
      <use xlink:href="#ArialMT-54" x="1326.34375"/>
      <use xlink:href="#ArialMT-73" x="1376.302734"/>
      <use xlink:href="#ArialMT-29" x="1426.302734"/>
     </g>
    </g>
   </g>
   <g id="matplotlib.axis_6">
    <g id="ytick_12">
     <g id="line2d_42">
      <path d="M 39.995553 582.758953 
L 716.99976 582.758953 
" clip-path="url(#peab60cf4a9)" style="fill: none; stroke: #ffffff; stroke-linecap: round"/>
     </g>
     <g id="text_43">
      <!-- 15 -->
      <g style="fill: #262626" transform="translate(18.26149 586.69575) scale(0.11 -0.11)">
       <use xlink:href="#ArialMT-31"/>
       <use xlink:href="#ArialMT-35" x="55.615234"/>
      </g>
     </g>
    </g>
    <g id="ytick_13">
     <g id="line2d_43">
      <path d="M 39.995553 547.90335 
L 716.99976 547.90335 
" clip-path="url(#peab60cf4a9)" style="fill: none; stroke: #ffffff; stroke-linecap: round"/>
     </g>
     <g id="text_44">
      <!-- 20 -->
      <g style="fill: #262626" transform="translate(18.26149 551.840147) scale(0.11 -0.11)">
       <use xlink:href="#ArialMT-32"/>
       <use xlink:href="#ArialMT-30" x="55.615234"/>
      </g>
     </g>
    </g>
    <g id="ytick_14">
     <g id="line2d_44">
      <path d="M 39.995553 513.047747 
L 716.99976 513.047747 
" clip-path="url(#peab60cf4a9)" style="fill: none; stroke: #ffffff; stroke-linecap: round"/>
     </g>
     <g id="text_45">
      <!-- 25 -->
      <g style="fill: #262626" transform="translate(18.26149 516.984544) scale(0.11 -0.11)">
       <use xlink:href="#ArialMT-32"/>
       <use xlink:href="#ArialMT-35" x="55.615234"/>
      </g>
     </g>
    </g>
    <g id="ytick_15">
     <g id="line2d_45">
      <path d="M 39.995553 478.192144 
L 716.99976 478.192144 
" clip-path="url(#peab60cf4a9)" style="fill: none; stroke: #ffffff; stroke-linecap: round"/>
     </g>
     <g id="text_46">
      <!-- 30 -->
      <g style="fill: #262626" transform="translate(18.26149 482.128941) scale(0.11 -0.11)">
       <use xlink:href="#ArialMT-33"/>
       <use xlink:href="#ArialMT-30" x="55.615234"/>
      </g>
     </g>
    </g>
    <g id="text_47">
     <!-- Congestion Window Size (Segments) -->
     <g style="fill: #262626" transform="translate(11.735865 637.981928) rotate(-90) scale(0.12 -0.12)">
      <use xlink:href="#ArialMT-43"/>
      <use xlink:href="#ArialMT-6f" x="72.216797"/>
      <use xlink:href="#ArialMT-6e" x="127.832031"/>
      <use xlink:href="#ArialMT-67" x="183.447266"/>
      <use xlink:href="#ArialMT-65" x="239.0625"/>
      <use xlink:href="#ArialMT-73" x="294.677734"/>
      <use xlink:href="#ArialMT-74" x="344.677734"/>
      <use xlink:href="#ArialMT-69" x="372.460938"/>
      <use xlink:href="#ArialMT-6f" x="394.677734"/>
      <use xlink:href="#ArialMT-6e" x="450.292969"/>
      <use xlink:href="#ArialMT-20" x="505.908203"/>
      <use xlink:href="#ArialMT-57" x="533.691406"/>
      <use xlink:href="#ArialMT-69" x="628.076172"/>
      <use xlink:href="#ArialMT-6e" x="650.292969"/>
      <use xlink:href="#ArialMT-64" x="705.908203"/>
      <use xlink:href="#ArialMT-6f" x="761.523438"/>
      <use xlink:href="#ArialMT-77" x="817.138672"/>
      <use xlink:href="#ArialMT-20" x="889.355469"/>
      <use xlink:href="#ArialMT-53" x="917.138672"/>
      <use xlink:href="#ArialMT-69" x="983.837891"/>
      <use xlink:href="#ArialMT-7a" x="1006.054688"/>
      <use xlink:href="#ArialMT-65" x="1056.054688"/>
      <use xlink:href="#ArialMT-20" x="1111.669922"/>
      <use xlink:href="#ArialMT-28" x="1139.453125"/>
      <use xlink:href="#ArialMT-53" x="1172.753906"/>
      <use xlink:href="#ArialMT-65" x="1239.453125"/>
      <use xlink:href="#ArialMT-67" x="1295.068359"/>
      <use xlink:href="#ArialMT-6d" x="1350.683594"/>
      <use xlink:href="#ArialMT-65" x="1433.984375"/>
      <use xlink:href="#ArialMT-6e" x="1489.599609"/>
      <use xlink:href="#ArialMT-74" x="1545.214844"/>
      <use xlink:href="#ArialMT-73" x="1572.998047"/>
      <use xlink:href="#ArialMT-29" x="1622.998047"/>
     </g>
    </g>
   </g>
   <g id="line2d_46">
    <path d="M 70.768471 603.672315 
L 92.749127 554.495242 
L 114.729783 504.403397 
L 136.710439 476.162143 
L 158.691095 473.54529 
L 180.671751 480.700318 
L 202.652408 488.462641 
L 224.633064 494.810231 
L 246.61372 499.654999 
L 268.594376 503.263925 
L 290.575032 505.922437 
L 312.555688 507.868852 
L 334.536344 509.288564 
L 356.517 510.321571 
L 378.497656 511.071968 
L 400.478312 511.616454 
L 422.458968 512.01122 
L 444.439625 512.297274 
L 466.420281 512.504473 
L 488.400937 512.654512 
L 510.381593 512.763138 
L 532.362249 512.84177 
L 554.342905 512.898683 
L 576.323561 512.939875 
L 598.304217 512.969685 
L 620.284873 512.991259 
L 642.265529 513.00687 
L 664.246185 513.018168 
L 686.226841 513.026343 
" clip-path="url(#peab60cf4a9)" style="fill: none; stroke: #ff0000; stroke-linecap: round"/>
    <defs>
     <path id="mf626aefc55" d="M 0 1.5 
C 0.397805 1.5 0.77937 1.341951 1.06066 1.06066 
C 1.341951 0.77937 1.5 0.397805 1.5 0 
C 1.5 -0.397805 1.341951 -0.77937 1.06066 -1.06066 
C 0.77937 -1.341951 0.397805 -1.5 0 -1.5 
C -0.397805 -1.5 -0.77937 -1.341951 -1.06066 -1.06066 
C -1.341951 -0.77937 -1.5 -0.397805 -1.5 0 
C -1.5 0.397805 -1.341951 0.77937 -1.06066 1.06066 
C -0.77937 1.341951 -0.397805 1.5 0 1.5 
z
" style="stroke: #ff0000"/>
    </defs>
    <g clip-path="url(#peab60cf4a9)">
     <use xlink:href="#mf626aefc55" x="70.768471" y="603.672315" style="fill: #ff0000; stroke: #ff0000"/>
     <use xlink:href="#mf626aefc55" x="92.749127" y="554.495242" style="fill: #ff0000; stroke: #ff0000"/>
     <use xlink:href="#mf626aefc55" x="114.729783" y="504.403397" style="fill: #ff0000; stroke: #ff0000"/>
     <use xlink:href="#mf626aefc55" x="136.710439" y="476.162143" style="fill: #ff0000; stroke: #ff0000"/>
     <use xlink:href="#mf626aefc55" x="158.691095" y="473.54529" style="fill: #ff0000; stroke: #ff0000"/>
     <use xlink:href="#mf626aefc55" x="180.671751" y="480.700318" style="fill: #ff0000; stroke: #ff0000"/>
     <use xlink:href="#mf626aefc55" x="202.652408" y="488.462641" style="fill: #ff0000; stroke: #ff0000"/>
     <use xlink:href="#mf626aefc55" x="224.633064" y="494.810231" style="fill: #ff0000; stroke: #ff0000"/>
     <use xlink:href="#mf626aefc55" x="246.61372" y="499.654999" style="fill: #ff0000; stroke: #ff0000"/>
     <use xlink:href="#mf626aefc55" x="268.594376" y="503.263925" style="fill: #ff0000; stroke: #ff0000"/>
     <use xlink:href="#mf626aefc55" x="290.575032" y="505.922437" style="fill: #ff0000; stroke: #ff0000"/>
     <use xlink:href="#mf626aefc55" x="312.555688" y="507.868852" style="fill: #ff0000; stroke: #ff0000"/>
     <use xlink:href="#mf626aefc55" x="334.536344" y="509.288564" style="fill: #ff0000; stroke: #ff0000"/>
     <use xlink:href="#mf626aefc55" x="356.517" y="510.321571" style="fill: #ff0000; stroke: #ff0000"/>
     <use xlink:href="#mf626aefc55" x="378.497656" y="511.071968" style="fill: #ff0000; stroke: #ff0000"/>
     <use xlink:href="#mf626aefc55" x="400.478312" y="511.616454" style="fill: #ff0000; stroke: #ff0000"/>
     <use xlink:href="#mf626aefc55" x="422.458968" y="512.01122" style="fill: #ff0000; stroke: #ff0000"/>
     <use xlink:href="#mf626aefc55" x="444.439625" y="512.297274" style="fill: #ff0000; stroke: #ff0000"/>
     <use xlink:href="#mf626aefc55" x="466.420281" y="512.504473" style="fill: #ff0000; stroke: #ff0000"/>
     <use xlink:href="#mf626aefc55" x="488.400937" y="512.654512" style="fill: #ff0000; stroke: #ff0000"/>
     <use xlink:href="#mf626aefc55" x="510.381593" y="512.763138" style="fill: #ff0000; stroke: #ff0000"/>
     <use xlink:href="#mf626aefc55" x="532.362249" y="512.84177" style="fill: #ff0000; stroke: #ff0000"/>
     <use xlink:href="#mf626aefc55" x="554.342905" y="512.898683" style="fill: #ff0000; stroke: #ff0000"/>
     <use xlink:href="#mf626aefc55" x="576.323561" y="512.939875" style="fill: #ff0000; stroke: #ff0000"/>
     <use xlink:href="#mf626aefc55" x="598.304217" y="512.969685" style="fill: #ff0000; stroke: #ff0000"/>
     <use xlink:href="#mf626aefc55" x="620.284873" y="512.991259" style="fill: #ff0000; stroke: #ff0000"/>
     <use xlink:href="#mf626aefc55" x="642.265529" y="513.00687" style="fill: #ff0000; stroke: #ff0000"/>
     <use xlink:href="#mf626aefc55" x="664.246185" y="513.018168" style="fill: #ff0000; stroke: #ff0000"/>
     <use xlink:href="#mf626aefc55" x="686.226841" y="513.026343" style="fill: #ff0000; stroke: #ff0000"/>
    </g>
   </g>
   <g id="patch_16">
    <path d="M 39.995553 610.178666 
L 39.995553 467.038939 
" style="fill: none; stroke: #ffffff; stroke-width: 1.25; stroke-linejoin: miter; stroke-linecap: square"/>
   </g>
   <g id="patch_17">
    <path d="M 716.99976 610.178666 
L 716.99976 467.038939 
" style="fill: none; stroke: #ffffff; stroke-width: 1.25; stroke-linejoin: miter; stroke-linecap: square"/>
   </g>
   <g id="patch_18">
    <path d="M 39.995553 610.178666 
L 716.99976 610.178666 
" style="fill: none; stroke: #ffffff; stroke-width: 1.25; stroke-linejoin: miter; stroke-linecap: square"/>
   </g>
   <g id="patch_19">
    <path d="M 39.995553 467.038939 
L 716.99976 467.038939 
" style="fill: none; stroke: #ffffff; stroke-width: 1.25; stroke-linejoin: miter; stroke-linecap: square"/>
   </g>
   <g id="text_48">
    <g id="patch_20">
     <path d="M 378.497656 500.123338 
L 552.097656 500.123338 
Q 555.097656 500.123338 555.097656 497.123338 
L 555.097656 487.623338 
Q 555.097656 484.623338 552.097656 484.623338 
L 378.497656 484.623338 
Q 375.497656 484.623338 375.497656 487.623338 
L 375.497656 497.123338 
Q 375.497656 500.123338 378.497656 500.123338 
z
" style="fill: #ffffff; stroke: #000000; stroke-linejoin: miter"/>
    </g>
    <!-- Sending Rate $x_2$: 25.38 segment / RTT -->
    <g transform="translate(378.497656 494.923338) scale(0.1 -0.1)">
     <defs>
      <path id="ArialMT-38" d="M 1131 2484 
Q 781 2613 612 2850 
Q 444 3088 444 3419 
Q 444 3919 803 4259 
Q 1163 4600 1759 4600 
Q 2359 4600 2725 4251 
Q 3091 3903 3091 3403 
Q 3091 3084 2923 2848 
Q 2756 2613 2416 2484 
Q 2838 2347 3058 2040 
Q 3278 1734 3278 1309 
Q 3278 722 2862 322 
Q 2447 -78 1769 -78 
Q 1091 -78 675 323 
Q 259 725 259 1325 
Q 259 1772 486 2073 
Q 713 2375 1131 2484 
z
M 1019 3438 
Q 1019 3113 1228 2906 
Q 1438 2700 1772 2700 
Q 2097 2700 2305 2904 
Q 2513 3109 2513 3406 
Q 2513 3716 2298 3927 
Q 2084 4138 1766 4138 
Q 1444 4138 1231 3931 
Q 1019 3725 1019 3438 
z
M 838 1322 
Q 838 1081 952 856 
Q 1066 631 1291 507 
Q 1516 384 1775 384 
Q 2178 384 2440 643 
Q 2703 903 2703 1303 
Q 2703 1709 2433 1975 
Q 2163 2241 1756 2241 
Q 1359 2241 1098 1978 
Q 838 1716 838 1322 
z
" transform="scale(0.015625)"/>
     </defs>
     <use xlink:href="#ArialMT-53" transform="translate(0 0.203125)"/>
     <use xlink:href="#ArialMT-65" transform="translate(66.699219 0.203125)"/>
     <use xlink:href="#ArialMT-6e" transform="translate(122.314453 0.203125)"/>
     <use xlink:href="#ArialMT-64" transform="translate(177.929688 0.203125)"/>
     <use xlink:href="#ArialMT-69" transform="translate(233.544922 0.203125)"/>
     <use xlink:href="#ArialMT-6e" transform="translate(255.761719 0.203125)"/>
     <use xlink:href="#ArialMT-67" transform="translate(311.376953 0.203125)"/>
     <use xlink:href="#ArialMT-20" transform="translate(366.992188 0.203125)"/>
     <use xlink:href="#ArialMT-52" transform="translate(394.775391 0.203125)"/>
     <use xlink:href="#ArialMT-61" transform="translate(466.992188 0.203125)"/>
     <use xlink:href="#ArialMT-74" transform="translate(522.607422 0.203125)"/>
     <use xlink:href="#ArialMT-65" transform="translate(550.390625 0.203125)"/>
     <use xlink:href="#ArialMT-20" transform="translate(606.005859 0.203125)"/>
     <use xlink:href="#DejaVuSans-Oblique-78" transform="translate(633.789062 0.203125)"/>
     <use xlink:href="#DejaVuSans-32" transform="translate(692.96875 -16.203125) scale(0.7)"/>
     <use xlink:href="#ArialMT-3a" transform="translate(740.239258 0.203125)"/>
     <use xlink:href="#ArialMT-20" transform="translate(768.022461 0.203125)"/>
     <use xlink:href="#ArialMT-32" transform="translate(795.805664 0.203125)"/>
     <use xlink:href="#ArialMT-35" transform="translate(851.420898 0.203125)"/>
     <use xlink:href="#ArialMT-2e" transform="translate(907.036133 0.203125)"/>
     <use xlink:href="#ArialMT-33" transform="translate(934.819336 0.203125)"/>
     <use xlink:href="#ArialMT-38" transform="translate(990.43457 0.203125)"/>
     <use xlink:href="#ArialMT-20" transform="translate(1046.049805 0.203125)"/>
     <use xlink:href="#ArialMT-73" transform="translate(1073.833008 0.203125)"/>
     <use xlink:href="#ArialMT-65" transform="translate(1123.833008 0.203125)"/>
     <use xlink:href="#ArialMT-67" transform="translate(1179.448242 0.203125)"/>
     <use xlink:href="#ArialMT-6d" transform="translate(1235.063477 0.203125)"/>
     <use xlink:href="#ArialMT-65" transform="translate(1318.364258 0.203125)"/>
     <use xlink:href="#ArialMT-6e" transform="translate(1373.979492 0.203125)"/>
     <use xlink:href="#ArialMT-74" transform="translate(1429.594727 0.203125)"/>
     <use xlink:href="#ArialMT-20" transform="translate(1457.37793 0.203125)"/>
     <use xlink:href="#ArialMT-2f" transform="translate(1485.161133 0.203125)"/>
     <use xlink:href="#ArialMT-20" transform="translate(1512.944336 0.203125)"/>
     <use xlink:href="#ArialMT-52" transform="translate(1540.727539 0.203125)"/>
     <use xlink:href="#ArialMT-54" transform="translate(1612.944336 0.203125)"/>
     <use xlink:href="#ArialMT-54" transform="translate(1674.02832 0.203125)"/>
    </g>
   </g>
   <g id="text_49">
    <!-- Congestion Window for $x_{2}$ -->
    <g style="fill: #262626" transform="translate(308.357656 461.038939) scale(0.12 -0.12)">
     <use xlink:href="#ArialMT-43" transform="translate(0 0.203125)"/>
     <use xlink:href="#ArialMT-6f" transform="translate(72.216797 0.203125)"/>
     <use xlink:href="#ArialMT-6e" transform="translate(127.832031 0.203125)"/>
     <use xlink:href="#ArialMT-67" transform="translate(183.447266 0.203125)"/>
     <use xlink:href="#ArialMT-65" transform="translate(239.0625 0.203125)"/>
     <use xlink:href="#ArialMT-73" transform="translate(294.677734 0.203125)"/>
     <use xlink:href="#ArialMT-74" transform="translate(344.677734 0.203125)"/>
     <use xlink:href="#ArialMT-69" transform="translate(372.460938 0.203125)"/>
     <use xlink:href="#ArialMT-6f" transform="translate(394.677734 0.203125)"/>
     <use xlink:href="#ArialMT-6e" transform="translate(450.292969 0.203125)"/>
     <use xlink:href="#ArialMT-20" transform="translate(505.908203 0.203125)"/>
     <use xlink:href="#ArialMT-57" transform="translate(533.691406 0.203125)"/>
     <use xlink:href="#ArialMT-69" transform="translate(628.076172 0.203125)"/>
     <use xlink:href="#ArialMT-6e" transform="translate(650.292969 0.203125)"/>
     <use xlink:href="#ArialMT-64" transform="translate(705.908203 0.203125)"/>
     <use xlink:href="#ArialMT-6f" transform="translate(761.523438 0.203125)"/>
     <use xlink:href="#ArialMT-77" transform="translate(817.138672 0.203125)"/>
     <use xlink:href="#ArialMT-20" transform="translate(889.355469 0.203125)"/>
     <use xlink:href="#ArialMT-66" transform="translate(917.138672 0.203125)"/>
     <use xlink:href="#ArialMT-6f" transform="translate(944.921875 0.203125)"/>
     <use xlink:href="#ArialMT-72" transform="translate(1000.537109 0.203125)"/>
     <use xlink:href="#ArialMT-20" transform="translate(1033.837891 0.203125)"/>
     <use xlink:href="#DejaVuSans-Oblique-78" transform="translate(1061.621094 0.203125)"/>
     <use xlink:href="#DejaVuSans-32" transform="translate(1120.800781 -16.203125) scale(0.7)"/>
    </g>
   </g>
   <g id="legend_3">
    <g id="patch_21">
     <path d="M 561.602416 491.661752 
L 709.29976 491.661752 
Q 711.49976 491.661752 711.49976 489.461752 
L 711.49976 474.738939 
Q 711.49976 472.538939 709.29976 472.538939 
L 561.602416 472.538939 
Q 559.402416 472.538939 559.402416 474.738939 
L 559.402416 489.461752 
Q 559.402416 491.661752 561.602416 491.661752 
z
" style="fill: #eaeaf2; opacity: 0.8; stroke: #cccccc; stroke-linejoin: miter"/>
    </g>
    <g id="line2d_47">
     <path d="M 563.802416 481.096595 
L 574.802416 481.096595 
L 585.802416 481.096595 
" style="fill: none; stroke: #ff0000; stroke-linecap: round"/>
     <g>
      <use xlink:href="#mf626aefc55" x="574.802416" y="481.096595" style="fill: #ff0000; stroke: #ff0000"/>
     </g>
    </g>
    <g id="text_50">
     <!-- Congestion Window x2 -->
     <g style="fill: #262626" transform="translate(594.602416 484.946595) scale(0.11 -0.11)">
      <use xlink:href="#ArialMT-43"/>
      <use xlink:href="#ArialMT-6f" x="72.216797"/>
      <use xlink:href="#ArialMT-6e" x="127.832031"/>
      <use xlink:href="#ArialMT-67" x="183.447266"/>
      <use xlink:href="#ArialMT-65" x="239.0625"/>
      <use xlink:href="#ArialMT-73" x="294.677734"/>
      <use xlink:href="#ArialMT-74" x="344.677734"/>
      <use xlink:href="#ArialMT-69" x="372.460938"/>
      <use xlink:href="#ArialMT-6f" x="394.677734"/>
      <use xlink:href="#ArialMT-6e" x="450.292969"/>
      <use xlink:href="#ArialMT-20" x="505.908203"/>
      <use xlink:href="#ArialMT-57" x="533.691406"/>
      <use xlink:href="#ArialMT-69" x="628.076172"/>
      <use xlink:href="#ArialMT-6e" x="650.292969"/>
      <use xlink:href="#ArialMT-64" x="705.908203"/>
      <use xlink:href="#ArialMT-6f" x="761.523438"/>
      <use xlink:href="#ArialMT-77" x="817.138672"/>
      <use xlink:href="#ArialMT-20" x="889.355469"/>
      <use xlink:href="#ArialMT-78" x="917.138672"/>
      <use xlink:href="#ArialMT-32" x="967.138672"/>
     </g>
    </g>
   </g>
  </g>
  <g id="text_51">
   <!-- WISD Strict Fairness -->
   <g style="fill: #262626" transform="translate(293.194125 13.30749) scale(0.144 -0.144)">
    <use xlink:href="#ArialMT-57"/>
    <use xlink:href="#ArialMT-49" x="94.384766"/>
    <use xlink:href="#ArialMT-53" x="122.167969"/>
    <use xlink:href="#ArialMT-44" x="188.867188"/>
    <use xlink:href="#ArialMT-20" x="261.083984"/>
    <use xlink:href="#ArialMT-53" x="288.867188"/>
    <use xlink:href="#ArialMT-74" x="355.566406"/>
    <use xlink:href="#ArialMT-72" x="383.349609"/>
    <use xlink:href="#ArialMT-69" x="416.650391"/>
    <use xlink:href="#ArialMT-63" x="438.867188"/>
    <use xlink:href="#ArialMT-74" x="488.867188"/>
    <use xlink:href="#ArialMT-20" x="516.650391"/>
    <use xlink:href="#ArialMT-46" x="544.433594"/>
    <use xlink:href="#ArialMT-61" x="605.517578"/>
    <use xlink:href="#ArialMT-69" x="661.132812"/>
    <use xlink:href="#ArialMT-72" x="683.349609"/>
    <use xlink:href="#ArialMT-6e" x="716.650391"/>
    <use xlink:href="#ArialMT-65" x="772.265625"/>
    <use xlink:href="#ArialMT-73" x="827.880859"/>
    <use xlink:href="#ArialMT-73" x="877.880859"/>
   </g>
  </g>
 </g>
 <defs>
  <clipPath id="pa343a48899">
   <rect x="39.995553" y="22.16997" width="677.004207" height="143.139727"/>
  </clipPath>
  <clipPath id="pe9813b539d">
   <rect x="39.995553" y="220.604396" width="677.004207" height="190.852969"/>
  </clipPath>
  <clipPath id="peab60cf4a9">
   <rect x="39.995553" y="467.038939" width="677.004207" height="143.139727"/>
  </clipPath>
 </defs>
</svg>
